<?xml version="1.0" encoding="UTF-8" standalone="no"?>
<svg
   xmlns:dc="http://purl.org/dc/elements/1.1/"
   xmlns:cc="http://creativecommons.org/ns#"
   xmlns:rdf="http://www.w3.org/1999/02/22-rdf-syntax-ns#"
   xmlns:svg="http://www.w3.org/2000/svg"
   xmlns="http://www.w3.org/2000/svg"
   width="209.58955mm"
   height="180.51054mm"
   viewBox="0 0 209.58955 180.51055"
   version="1.1"
   id="svg8">
  <defs
     id="defs2">
    <clipPath
       clipPathUnits="userSpaceOnUse"
       id="clipPath4933">
      <path
         style="fill:#ffffff;fill-opacity:1;stroke:#002eff;stroke-width:0.26726952;stroke-opacity:0"
         d="m -0.74526042,-23.36382 c -2.38647018,0 -3.17798978,0.0916 -3.52847008,0.408781 -0.2485099,0.224919 -1.122889,0.518128 -1.9430392,0.651608 -0.8201395,0.13349 -2.3285899,0.610341 -3.3517311,1.059391 -1.9996602,0.877631 -2.7550402,0.97513 -5.2678992,0.67903 -2.691741,-0.317151 -8.023569,1.31024 -11.661817,3.559971 -0.928129,0.573908 -2.520643,1.4927 -3.539313,2.041229 -4.900049,2.638531 -10.635001,8.3432409 -14.930361,14.85231108 -2.131099,3.22941952 -5.598459,10.15430892 -7.00215,13.98520792 -2.064509,5.634361 -3.950531,13.24007 -4.82142,19.441192 -0.952601,6.78302 -0.80032,21.732899 0.299209,29.382201 0.882309,6.138096 3.213071,15.146708 5.342832,20.649857 1.52432,3.938772 5.00452,10.787776 6.981481,13.739759 9.067858,13.539812 20.10215,21.042182 33.087389,22.496302 11.04374056,1.23669 20.7869107,-1.48124 30.015739,-8.37364 C 26.58691,105.49478 32.235671,98.03943 34.871681,90.17551 37.36301,82.743259 39.54522,65.53587 40.390209,46.66085 41.310811,26.09675 39.257501,12.354109 33.54153,0.82385873 31.08108,-4.1393806 28.733861,-7.4724189 25.2609,-10.93563 22.093769,-14.093879 19.982079,-15.59359 14.577311,-18.523271 7.7208797,-22.23982 4.1630197,-23.36382 -0.74526042,-23.36382 Z M -42.354091,-9.3610412 c -0.0595,-0.059499 -0.95913,0.4353719 -1.770438,0.97409 -0.458372,0.3043502 -1.110162,0.7266808 -1.447972,0.9384506 -0.714438,0.4478602 -1.172818,0.7985601 -1.131718,0.8650499 0.0455,0.073602 0.328909,0.00299 0.919329,-0.2278803 0.956739,-0.3745177 2.17134,-1.0361083 2.75539,-1.5006902 0.361071,-0.2872079 0.782579,-0.9418399 0.675409,-1.04902 z m -3.000848,3.7775303 c -0.01381,1.403e-4 -0.0315,0.00299 -0.0522,0.009 -0.052,0.014711 -0.142041,0.039701 -0.200512,0.0553 -0.4186,0.1123395 -1.73465,0.8049895 -2.52594,1.3296397 -0.711049,0.4714293 -0.958598,0.6927798 -0.958598,0.8573188 0,0.1550194 0.084,0.2738015 0.212389,0.29972 0.240649,0.048501 0.788429,-0.2123784 1.39423,-0.6640486 0.577511,-0.4305511 1.70712,-1.3353203 1.948719,-1.5606104 0.20724,-0.1932596 0.27844,-0.3275594 0.181901,-0.3266096 z m -3.739311,4.4570915 c -0.47407,0.0263 -5.062181,3.5659007 -9.247503,7.145319 -4.4211,3.7810493 -8.98394,8.0947394 -8.98394,8.4930114 0,0.317428 0.208182,0.28607 1.186482,-0.176742 1.136419,-0.537628 1.609899,-0.91948 3.89124,-3.1383 2.075508,-2.018609 2.66019,-2.4825585 4.367178,-3.4685283 1.347941,-0.778592 2.028322,-1.0269008 2.34714,-0.856271 0.432961,0.2317194 0.258411,0.5951802 -0.561718,1.1704611 -3.033922,2.1281782 -6.906761,5.6877002 -9.61285,8.8345992 -2.12077,2.466239 -2.02279,2.33236 -1.61644,2.210199 0.869889,-0.261538 3.694758,-2.276948 5.812049,-4.1465 1.214289,-1.0722 3.569319,-2.866868 4.371819,-3.33158 0.675672,-0.391268 1.21181,-0.414999 1.28003,-0.0569 0.0291,0.152771 -2.119159,1.989799 -6.947379,5.93969 -9.981379,8.165571 -9.96452,8.15019 -8.761219,7.72564 1.528609,-0.539321 4.05838,-2.089071 8.25014,-5.05396 3.832518,-2.710791 5.566058,-3.698211 6.010478,-3.423581 0.445662,0.275431 -0.66136,1.615022 -4.862229,5.883381 -7.288631,7.40569 -8.400791,8.558371 -8.327139,8.632031 0.111019,0.111019 4.089548,-2.397252 5.6441,-3.558431 0.734758,-0.548849 1.931858,-1.49741 2.660298,-2.10788 2.02733,-1.69902 2.590281,-1.88508 2.445851,-0.80822 -0.15076,1.123971 -1.91811,3.14076 -5.694231,6.497791 -3.639629,3.235698 -5.358328,5.034518 -5.358328,5.60792 0,0.21109 0.006,0.209659 0.652669,-0.167952 2.96504,-1.731939 5.241711,-3.211039 8.374171,-5.439468 2.231789,-1.587712 1.974149,-1.129321 2.803448,-4.981091 1.908331,-8.863521 3.902541,-14.65951 7.702373,-22.3836496 1.58007,-3.21190936 2.326161,-4.91315109 2.20658,-5.0327401 -0.007,-0.00701 -0.01781,-0.009 -0.0331,-0.00799 z m 42.2268805,2.3512806 c 2.459519,0 6.22579929,0.56261 8.3488398,1.2469495 4.8710506,1.5701698 8.4853092,5.5124588 10.5032387,11.4566703 4.497041,13.246978 4.852032,37.089929 0.840261,56.41 -1.917801,9.235757 -4.6614,15.782158 -8.2506608,19.686138 -1.7884299,1.94519 -3.75025972,2.974419 -6.7334395,3.533113 -1.2317809,0.230717 -3.0813586,0.585391 -4.1103497,0.788088 -1.0289804,0.202671 -2.1411988,0.454977 -2.4716793,0.560679 -0.5509895,0.176212 -0.5880814,0.1261 -0.4423515,-0.602589 0.1508019,-0.75401 0.0997,-0.809493 -1.0025192,-1.090321 -0.638919,-0.162852 -2.094101,-0.852991 -3.23391,-1.53379 -1.1597,-0.692626 -2.55306,-1.302491 -3.163631,-1.384379 -0.600109,-0.08051 -1.135009,-0.279189 -1.188558,-0.441881 -0.0536,-0.162666 -0.22537,-0.796581 -0.381892,-1.408668 -0.156519,-0.61214 -1.005649,-2.211758 -1.88722,-3.554333 -4.86637,-7.411085 -7.237055,-15.76877 -8.304408,-29.276239 -0.38812,-4.911749 -0.15762,-16.592888 0.413932,-20.961508 C -25.77287,18.15189 -20.72734,7.7611491 -12.89594,3.6872589 -11.689591,3.0597202 -10.349159,2.2491691 -9.9173089,1.8858089 -9.217351,1.29682 -8.8866007,1.2248612 -6.8673695,1.2248612 Z m 3.7718603,3.8597099 c -0.9111006,-0.012912 -2.0132304,0.0888 -3.2731816,0.3059378 -2.2301491,0.3842305 -3.8129902,0.8524319 -5.1449102,1.5218621 -0.896088,0.4503685 -2.358329,1.4773196 -2.553848,1.7936898 -0.19467,0.3149785 0.999918,-0.004 2.498558,-0.6676496 C -8.8921199,6.8537896 -7.0299798,6.4443707 -2.8944894,6.13103 -0.24792048,5.9305208 -0.1130994,5.8842002 -0.96851054,5.4669708 -1.4646704,5.2249908 -2.1844112,5.0975093 -3.0955092,5.0845711 Z m 5.0596403,1.7394291 c -0.298741,0.011589 -0.46423,0.1314397 -0.9244912,0.5312304 -0.72777084,0.632169 -2.3851711,1.7282001 -4.7356289,3.1321084 -2.2789409,1.36117 -5.0513112,3.328612 -4.76767,3.383251 0.3735996,0.0719 2.2648889,-0.350779 3.7444786,-0.836639 0.7465007,-0.245131 2.6799117,-0.98761 4.29689157,-1.650521 3.23471913,-1.326121 3.80906863,-1.5043707 3.80906863,-1.181841 0,0.287811 -0.6326002,0.73279 -2.40553078,1.692381 -2.12473912,1.14998 -4.53154782,2.59479 -5.01158932,3.008601 l -0.4009999,0.345728 0.6015091,-0.0827 c 0.8762418,-0.1202 2.6800704,-0.875771 5.4120706,-2.267051 2.4459406,-1.24561 3.5332405,-1.67741 4.2250704,-1.67741 0.9945793,0 -0.1228593,1.071721 -2.0867,2.001411 -1.6811995,0.795899 -5.9043702,3.24843 -6.34483,3.68454 l -0.3307292,0.327628 h 0.6810984 c 1.06671,0 2.86695088,-0.359859 4.2906897,-0.857829 0.7165207,-0.25064 1.9203405,-0.67133 2.6747708,-0.934831 1.3642313,-0.476459 2.1895303,-0.589039 2.5677998,-0.349848 0.4300696,0.271928 -0.5452904,0.94212 -3.437509,2.360578 -3.44272928,1.68847 -4.17977113,2.264812 -3.61580117,2.828771 0.52306008,0.523079 2.75066127,-0.0979 6.80888007,-1.89807 L 9.6406594,17.218691 9.3073505,16.124189 C 8.1535793,12.339721 6.9935692,10.120629 5.39751,8.6429894 4.2916707,7.6191604 3.0909492,6.91589 2.3227712,6.8420712 2.1777213,6.8281806 2.0637097,6.8201637 1.9641311,6.8239737 Z M -1.4811408,7.49374 C -1.7748309,7.4837387 -2.4399511,7.7439802 -3.6892712,8.33244 -4.6853799,8.8016495 -6.2818889,9.4560408 -7.2373787,9.7866191 -10.62767,10.959541 -12.56464,11.169041 -14.052979,10.524039 -14.57084,10.29962 -14.988519,10.2022 -15.231201,10.2486 c -0.388768,0.0743 -1.293979,0.829001 -1.293979,1.079 0,0.15989 0.982189,0.46723 2.674771,0.836639 1.228519,0.268131 2.064708,0.57087 2.20504,0.797901 0.14981,0.24242 1.526329,-0.282839 4.5594087,-1.73995 3.3448202,-1.6068912 5.79551,-3.1093806 5.79551,-3.5532694 0,-0.1103101 -0.0572,-0.17077 -0.1906905,-0.1751806 z M -7.3670801,8.1877394 C -7.6549812,8.1817334 -9.136751,8.5508007 -9.8237787,8.7990804 -10.554971,9.0633012 -11.63137,9.5786302 -12.375561,10.02122 l -0.42478,0.25323 0.370001,-0.062 c 0.779129,-0.12991 3.2632095,-1.0202596 4.2126589,-1.5100087 0.545711,-0.2814611 0.9285499,-0.5120508 0.850601,-0.5146913 z m -0.1963711,6.7933916 c -0.0444,-0.005 -0.090599,-0.004 -0.1384988,0.003 -0.1738709,0.0254 -0.3386693,0.113688 -0.3658711,0.196368 -0.027199,0.0827 0.2198423,0.533961 0.548812,1.002512 2.174449,3.097159 3.0000098,4.534008 3.7532601,6.531398 0.263308,0.69823 0.6031282,1.54554 0.7549885,1.88309 0.2361009,0.524801 0.3226197,0.60497 0.5973815,0.552421 0.6847391,-0.13089 6.9575601,-3.347241 9.7668477,-5.007981 1.3363311,-0.789961 2.4323014,-1.705369 2.0396703,-1.70272 -0.106299,5.29e-4 -1.0953194,0.426899 -2.1978091,0.94774 -3.1033508,1.466051 -4.1181099,1.777762 -5.813081,1.7849 -1.18166888,0.005 -1.47703913,-0.0375 -1.87067828,-0.268711 C -1.163691,20.50648 -1.3265791,20.111881 -1.0615301,19.51561 -0.7868,18.897599 -0.77217913,18.431401 -1.0233296,18.301228 -1.1335709,18.244129 -1.6930111,18.13761 -2.266141,18.065059 -3.3891491,17.92285 -3.8298708,17.6693 -3.8298708,17.16434 c 0,-0.493241 -0.3361902,-0.641911 -1.5291091,-0.67437 -1.3172705,-0.0358 -1.6779293,-0.186981 -1.6779293,-0.70385 0,-0.452749 -0.2160402,-0.769771 -0.5265817,-0.80459 z M -67.367553,15.49945 c -0.172759,0.005 -0.348678,0.0481 -0.485759,0.128661 -0.297709,0.175019 -0.74322,0.664559 -1.03301,1.134298 -0.210799,0.34168 -1.93942,3.780922 -1.93942,3.858681 0,0.0458 1.816021,-1.773079 2.70578,-2.70991 0.867159,-0.91308 1.33394,-1.469711 1.43505,-1.711011 0.091,-0.217148 -0.0011,-0.474659 -0.21445,-0.598908 -0.12555,-0.0732 -0.295439,-0.106712 -0.468191,-0.101811 z m 6.869861,3.911909 c -0.0578,-0.0578 -1.39025,0.832861 -4.12688,2.757972 -3.44868,2.426009 -4.949381,3.286069 -6.412011,3.674718 -0.650388,0.172821 -1.09882,0.39923 -1.460889,0.737921 -0.370879,0.34695 -0.433509,0.48723 -0.70849,1.58284 -0.476851,1.9 -0.633691,2.912219 -0.50333,3.255119 0.0263,0.0691 0.0835,0.121441 0.13281,0.121441 0.333909,0 2.20014,-1.608881 5.254979,-4.53049 2.347622,-2.245219 7.841491,-7.581791 7.823811,-7.599521 z M 9.8272197,19.83819 c -0.1148794,0.008 -0.2741798,0.11642 -0.5834301,0.364329 -0.7943691,0.636831 -1.8051885,1.22383 -4.3873287,2.548152 -2.5642914,1.31514 -4.66706217,2.54672 -5.84149996,3.42098 -0.95687094,0.712309 -1.15608104,0.999858 -0.60255154,0.870239 0.41928,-0.0982 4.8481906,-1.565641 7.9809102,-2.64427 1.1761814,-0.404969 2.43899,-0.753981 2.8065492,-0.775679 0.6013609,-0.0356 0.6723301,-0.01 0.7100306,0.255299 0.084802,0.596159 -1.4965892,1.955109 -5.7216199,4.917519 -3.0106594,2.110952 -4.14238019,3.06292 -4.14238019,3.484031 0,0.0517 0.31538069,0.0603 0.70125167,0.0191 1.21301932,-0.129461 4.11376812,-1.23036 6.77115842,-2.569871 1.168871,-0.589198 2.3019015,-0.7239 2.3910714,-0.284719 0.0777,0.382699 -0.6608498,1.05151 -2.6349802,2.38745 -1.7871704,1.209429 -4.7306097,3.846031 -4.525301,4.05349 0.1820995,0.18405 1.9011609,-0.485769 3.1507113,-1.22782 2.1415189,-1.27172 3.5231784,-1.754481 3.9671995,-1.385969 0.1106408,0.0918 0.2010196,0.218519 0.2010196,0.281649 0,0.31964 -2.0587491,2.223079 -4.0757208,3.768248 -3.0823879,2.361383 -5.03071872,4.005842 -5.31181999,4.482413 -0.12861925,0.218069 -0.23409804,0.631899 -0.23409804,0.919818 0,0.554151 0.34487908,1.723451 0.5446686,1.846929 0.0652012,0.0403 1.27713053,-0.405048 2.69337893,-0.989599 3.1548917,-1.302168 4.5822606,-1.764869 5.7195509,-1.85364 1.0033104,-0.0783 1.2727994,0.0897 1.1203414,0.697119 C 10.26166,43.469979 7.0149793,46.11131 3.2322711,48.35532 1.916141,49.136079 1.0521203,49.85165 0.77195038,50.39344 0.54031031,50.84138 0.62685023,51.60769 0.93834948,51.866209 1.219501,52.09955 2.1387588,51.885019 5.4032012,50.825449 7.5273794,50.136 8.3215897,49.937161 8.9952295,49.924731 c 1.6374795,-0.0303 1.2631105,0.489079 -2.3600701,3.273179 -2.6030105,2.000228 -4.778129,3.950948 -4.9263089,4.41783 -0.1206394,0.3801 0.071998,0.51999 0.8955485,0.65111 0.8500321,0.13534 4.1608401,0.0613 6.9964723,-0.15658 l 2.0329497,-0.156052 0.0842,-1.550799 c 0.56261,-10.386248 0.62026,-18.71938 0.16434,-23.800621 C 11.164581,24.603151 10.55379,20.469189 10.009082,19.9245 9.949382,19.8648 9.8960997,19.8335 9.827181,19.8382 Z m -80.1460117,1.434039 c -0.142891,0.004 -0.282789,0.02241 -0.403601,0.0574 -0.243229,0.0704 -0.547478,0.33261 -0.67437,0.581339 -0.13126,0.257289 -0.29093,0.965521 -0.25477,1.130171 0.01659,0.0756 0.0499,0.137448 0.0744,0.137448 0.211249,0 1.76639,-0.97795 2.094439,-1.31722 0.165121,-0.17077 0.179332,-0.20434 0.13281,-0.306448 -0.081,-0.177581 -0.540268,-0.294421 -0.96893,-0.282652 z m 77.2769309,3.89948 c -0.077499,-0.0775 -4.2747195,1.519981 -5.97688988,2.27481 -0.7717499,0.34221 -1.64386948,0.789602 -1.93786919,0.994252 l -0.53432873,0.372089 0.046998,0.926041 c 0.026008,0.509368 0.074501,0.971148 0.1080108,1.02629 0.173609,0.285588 0.99517997,-0.0781 2.5843389,-1.14517 2.0117806,-1.350862 5.8314008,-4.32663 5.7097322,-4.448312 z m -71.0271919,3.14452 c -0.0383,-0.0382 -1.204008,0.68771 -2.590538,1.613352 -3.294462,2.199378 -4.945981,3.149209 -6.14381,3.533619 -1.22314,0.392509 -1.478381,0.777341 -1.840201,2.775029 -0.761609,4.205021 -1.893689,13.583791 -2.19831,18.212332 -0.24162,3.671298 -0.0318,7.448717 0.498161,8.972082 0.065,0.186875 2.09192,-1.722491 6.16758,-5.809493 3.338989,-3.34825 6.015868,-6.14257 5.94899,-6.20943 -0.0669,-0.0669 -0.528,0.232939 -1.025261,0.666091 -2.207461,1.922809 -3.450439,2.862448 -4.669999,3.53055 -1.149302,0.6296 -1.50033,0.72707 -2.878891,0.799439 -2.615391,0.13726 -2.56711,0.027 2.21485,-5.050341 2.90086,-3.08002 3.5065,-3.870618 2.063441,-2.693908 -1.970011,1.606389 -5.926101,2.840429 -6.57996,2.052609 -0.342731,-0.412991 0.36254,-1.307971 3.7021,-4.69895 1.723229,-1.749769 3.06814,-3.181189 2.988448,-3.181189 -0.0797,0 -1.220539,0.628698 -2.535248,1.39681 -2.722952,1.590918 -3.67828,1.970069 -4.0938,1.625208 -0.445881,-0.370049 0.0601,-1.074319 2.64841,-3.687098 1.299258,-1.311601 2.362129,-2.437112 2.362129,-2.501141 0,-0.064 0.735301,-0.868071 1.634011,-1.786461 0.89871,-0.918419 1.591508,-1.712169 1.539438,-1.764239 -0.0521,-0.0521 -0.86646,0.361439 -1.80971,0.91881 -2.07848,1.228231 -3.61541,1.763581 -4.185788,1.45831 -0.214971,-0.115041 -0.39067,-0.32121 -0.39067,-0.457859 0,-0.526952 1.215339,-1.86722 5.157308,-5.685952 2.24762,-2.177388 4.055571,-3.989919 4.01732,-4.02818 z m 3.961521,3.615301 c -0.55654,0.0899 -5.9778,5.11362 -9.127609,8.47698 -2.846231,3.039221 -2.963661,3.175529 -2.745052,3.175529 0.107432,0 1.908162,-1.14644 4.00182,-2.547649 3.901052,-2.610829 5.08403,-3.310911 5.59398,-3.310911 0.893601,0 -0.22234,1.307221 -5.8229,6.821302 -2.925939,2.880728 -5.264729,5.294048 -5.197099,5.362969 0.3414,0.34793 4.590079,-2.395619 6.848671,-4.422481 1.794338,-1.610228 2.612689,-2.13977 3.183268,-2.058778 0.70027,0.0994 0.6477,0.81571 -0.133839,1.82264 -0.377529,0.48641 -2.411381,2.71272 -4.520139,4.947489 -4.95164,5.247589 -5.153811,5.480791 -4.744932,5.480791 0.824942,0 2.966982,-1.346912 5.85856,-3.6835 2.263151,-1.82875 3.465701,-2.669861 4.338241,-3.03443 0.70617,-0.295061 1.237131,-0.19989 1.237131,0.2217 0,0.755539 -2.501832,3.764089 -7.438822,8.946218 -1.72956,1.815442 -3.144509,3.37647 -3.144509,3.468518 0,0.380736 1.62833,-0.779409 8.229981,-5.862177 l 2.503728,-1.92751 0.12092,-2.135799 c 0.0664,-1.174562 0.242221,-5.625732 0.390671,-9.89139 0.14846,-4.26567 0.365979,-8.20457 0.4837,-8.75348 0.117719,-0.548881 0.173199,-1.039101 0.122989,-1.089311 -0.008,-0.008 -0.0208,-0.01 -0.0388,-0.007 z m 64.0612028,0.5643 c -0.3825319,-0.004 -2.7780615,0.654979 -3.44577988,0.96065 -1.07583023,0.492519 -1.1025214,0.606739 -0.75344073,3.195161 0.16058885,1.190858 0.29165021,2.350479 0.29144912,2.577089 -1.9844e-4,0.226621 0.03990181,0.452279 0.0889,0.50128 0.15173061,0.15172 0.42474092,0.1002 1.06556969,-0.201031 C 2.4431301,38.944811 5.9567095,36.10951 5.2425012,36.26717 3.0318704,36.75517 1.5896399,36.71585 1.2169002,36.157611 1.0395394,35.89199 1.1103604,35.38127 1.385879,34.935469 1.5348605,34.694409 2.1959802,34.061 2.85556,33.527811 3.5151504,32.994649 4.0311408,32.53501 4.0022695,32.506149 c -0.00701,-0.006 -0.023098,-0.01 -0.048599,-0.01029 z m 4.1237799,10.556449 c -0.4374594,-0.0456 -3.434371,1.028092 -5.164021,1.85002 -0.591021,0.280831 -1.3429695,0.748612 -1.6707009,1.039731 -0.59355832,0.52729 -0.59539982,0.5325 -0.56533786,1.353399 0.0165894,0.45326 0.0650981,0.880962 0.10800027,0.95033 0.0428995,0.0693 0.15541889,0.126101 0.25010799,0.126101 0.4387321,0 6.8113195,-4.390419 7.2254004,-4.978001 0.2045917,-0.290298 0.1979401,-0.301839 -0.1834489,-0.34158 z m -0.649052,8.01709 c -0.404159,-0.059 -3.3646374,0.950092 -4.6544997,1.586471 -1.4283002,0.704691 -1.77537798,1.07891 -1.92804785,2.078929 -0.0660003,0.43262 -0.16230071,1.02209 -0.21394209,1.31001 L 0.53781,56.56826 1.7950994,55.471689 c 1.189871,-1.03767 1.6793501,-1.4033 4.6741318,-3.491788 0.9719787,-0.677831 1.1828489,-0.87788 0.9591199,-0.910532 z m -68.2526817,4.294322 c -0.133998,0.006 -0.31682,0.103259 -0.558109,0.287309 -0.658421,0.5022 -6.96677,7.102697 -8.246009,8.627887 -0.58564,0.698262 -1.151242,1.434995 -1.256771,1.63711 -0.105519,0.202142 -0.14486,0.366924 -0.0879,0.366924 0.557059,-0.0029 6.407589,-4.786154 8.60516,-7.03576 1.4795,-1.514531 1.85519,-2.146091 1.85519,-3.11867 0,-0.52745 -0.0883,-0.774121 -0.311611,-0.7648 z m 61.45154333,3.848838 c -0.45899123,0.0275 -0.58136102,0.55943 -0.58136102,1.927553 0,0.694796 0.03100123,1.263465 0.06929967,1.263465 0.0382005,0 0.59444996,-0.260826 1.23610162,-0.579808 C 1.9929495,61.504811 3.1978091,60.950641 4.028659,60.592818 5.8173799,59.82245 5.7904797,59.787649 3.2710802,59.606841 2.3424191,59.540139 1.4129987,59.42028 1.2060893,59.340691 0.97040904,59.25009 0.78031121,59.20337 0.6273106,59.212529 Z m 9.94720067,0.559142 c -0.123341,-0.006 -0.27582,0.01529 -0.459922,0.0537 -1.4748778,0.307969 -4.0688184,1.170725 -5.9624281,1.98334 -2.1663607,0.929666 -3.1482797,1.489313 -3.58324146,2.042266 -0.26246932,0.333666 -0.26331069,0.354621 -0.0304985,0.525039 0.27163977,0.198861 1.26510786,0.16338 6.45644976,-0.229976 2.7847581,-0.211005 3.2127193,-0.223414 3.0623403,-0.0894 -0.0306,0.0273 -1.8613515,0.956496 -4.0684819,2.064994 -5.09344875,2.55815 -5.75918804,3.097345 -4.1749398,3.38119 0.5621311,0.100727 2.8090707,0.06239 6.1500094,-0.104907 l 1.7042924,-0.0858 0.1250579,-0.481092 c 0.069001,-0.26461 0.277262,-1.533234 0.463021,-2.819479 0.185751,-1.286219 0.42986,-2.940235 0.542081,-3.675221 0.303019,-1.984537 0.310689,-2.537148 -0.22375,-2.564718 z m -77.919794,0.0284 c -0.0782,0.01939 -0.416089,0.253939 -0.818039,0.571019 -1.008351,0.795451 -2.750071,1.960014 -4.636931,3.100077 -1.631749,0.985917 -2.151229,1.226133 -2.879918,1.331701 l -0.534861,0.0775 -0.0382,1.231953 c -0.0755,2.423345 1.46278,11.285749 2.31149,13.317034 0.175519,0.420106 0.256201,0.485934 0.50488,0.412883 1.238279,-0.363749 6.327479,-4.487069 8.202599,-6.645566 0.85071,-0.979276 1.49134,-1.968871 1.274342,-1.968871 -0.0679,-2.6e-5 -0.899012,0.518054 -1.8464,1.150832 -3.22186,2.151936 -4.769162,2.667026 -5.54074,1.844807 -0.277871,-0.296068 -0.323072,-0.47199 -0.317302,-1.23608 0.006,-0.754248 0.0812,-1.036849 0.493512,-1.841738 0.701789,-1.370198 1.807038,-2.773733 4.039028,-5.129398 2.15967,-2.279359 2.68908,-2.905442 2.56367,-3.030829 -0.104148,-0.104166 -1.238089,0.640424 -2.89388,1.900106 -2.721809,2.070708 -4.017658,2.52177 -4.617289,1.606629 -0.19295,-0.294428 -0.191489,-0.359569 0.01551,-0.766339 0.25849,-0.507947 1.82228,-2.491079 2.888199,-3.66231 0.945732,-1.039177 1.847432,-2.140939 1.847432,-2.257747 0,-0.006 -0.006,-0.008 -0.01701,-0.006 z m 6.541722,0.361228 c -0.0628,0.01111 -0.12828,0.105442 -0.20774,0.275431 -0.187301,0.400722 -1.894231,2.425129 -3.916042,4.644162 -1.81391,1.990884 -3.801729,4.343268 -4.63228,5.48185 -0.85896,1.177554 -1.109488,1.765829 -1.109488,2.606542 0,0.714693 0.014,0.745358 0.30076,0.659395 1.248809,-0.37428 2.51728,-1.190757 5.420849,-3.488161 2.06389,-1.632982 2.849629,-2.087536 3.12746,-1.809697 0.22828,0.228283 -0.0011,1.013063 -0.69918,2.396225 -1.019001,2.018586 -3.04854,4.14782 -8.216551,8.618591 -0.80849,0.699373 -1.64655,1.459442 -1.862418,1.688809 -0.215892,0.229394 -0.323432,0.41701 -0.238752,0.41701 0.0847,0 1.158991,-0.459555 2.387452,-1.021133 l 2.23398,-1.021107 3.61373,-2.887689 c 5.755719,-4.598908 5.924079,-4.795573 5.760889,-6.733434 -0.156599,-1.859544 -1.172549,-7.59079 -1.622121,-9.15035 -0.13888,-0.481764 -0.23586,-0.694933 -0.340548,-0.676444 z m 60.71618148,5.213651 c -0.17937163,-0.004 -0.30578954,0.0358 -0.47645108,0.11729 -0.25071917,0.119804 -0.40824944,0.307764 -0.43562853,0.520383 -0.046101,0.358034 -0.37867167,1.427321 -1.32963977,4.27519 -1.1410606,3.41712 -2.2612006,5.766382 -4.1976807,8.802555 -1.0112295,1.585489 -1.4453817,2.330292 -1.4453817,2.478934 0,0.0381 0.075001,0.04469 0.1669124,0.01508 0.091898,-0.02971 0.7079377,-0.21344 1.3694278,-0.408755 1.1906514,-0.351552 2.0717007,-0.778484 2.0717007,-1.003565 0,-0.064 -0.2057691,-0.213915 -0.4573296,-0.333295 -1.3638292,-0.647171 -0.3070596,-1.470396 3.6643812,-2.853584 1.06572847,-0.371184 2.9301599,-0.954194 4.1428882,-1.295533 1.2127415,-0.34131 2.251501,-0.663255 2.3083917,-0.715696 C 5.3510597,74.92154 4.8108599,74.801631 4.09372,74.70781 2.5056803,74.500033 0.97712946,74.121044 0.51926006,73.821032 0.04112887,73.507766 0.07857006,73.051095 0.61585944,72.641255 0.85600056,72.458084 2.0104808,71.983237 3.1815902,71.586044 L 5.3111791,70.863599 3.3753789,70.791289 C -0.29303988,70.65397 -1.4873611,69.914777 -0.25230992,68.545452 -0.05172929,68.323017 0.77157996,67.706909 1.5770404,67.176498 2.3824903,66.646141 3.0614111,66.144332 3.0859909,66.061332 3.1136901,65.967829 2.8366793,65.877579 2.356831,65.82416 1.9310503,65.776747 1.1876187,65.64038 0.7052595,65.521318 0.32391025,65.427232 0.09192094,65.379157 -0.08746127,65.375083 Z m 8.80824902,5.848218 c -0.7753191,0 -6.4567197,1.59893 -7.0455605,1.982814 -0.12183,0.0794 0.0347,0.200845 0.5188321,0.402034 0.5897377,0.245084 0.9556776,0.288873 2.4463586,0.288873 2.6677091,0 3.2238315,0.255984 2.3466293,1.075398 -0.7393384,0.690642 -2.4041497,1.3539 -6.13968004,2.446364 -1.13922969,0.33319 -2.40112816,0.719614 -2.80448016,0.858864 l -0.7332901,0.253207 2.60398159,0.08009 c 3.80094861,0.11684 5.34573961,0.37883 5.45082941,0.924507 0.0719,0.373195 -1.1964802,0.672544 -5.25187862,1.239732 -1.88846088,0.26408 -4.01948118,0.747818 -5.90454218,1.339982 -2.5113086,0.788829 -2.992509,1.578637 -1.3735685,2.253589 0.8657907,0.360997 2.0618608,0.498104 5.3402494,0.612378 3.3727814,0.117501 4.0620606,0.2286 3.9847706,0.6418 -0.0605,0.323638 -1.1548507,0.663442 -3.1817205,0.98753 -4.0726201,0.651272 -6.2585811,1.179433 -6.3794587,1.542018 -0.090802,0.272442 0.4764299,0.468683 3.6385394,1.257856 l 3.07370961,0.766868 1.80972089,-1.82626 c 1.234059,-1.24542 2.0916,-2.251392 2.6954401,-3.162591 2.0034197,-3.023288 3.72922,-7.265855 4.8927199,-12.027191 0.4775994,-1.954371 0.4777793,-1.937861 0.012409,-1.937861 z m -66.9922905,1.451054 -0.587042,1.277462 c -1.015609,2.208662 -2.354728,4.257119 -4.684988,7.167007 -2.671932,3.336581 -5.344371,6.741556 -5.819801,7.415053 -0.490329,0.694637 -0.73683,1.269683 -0.54415,1.269683 0.199641,0 1.390811,-1.046163 4.23695,-3.721735 4.50642,-4.23635 5.714389,-5.232241 6.349479,-5.232241 0.999791,0 -0.65291,2.660914 -4.523748,7.283264 -1.781482,2.127356 -2.347582,2.917852 -2.14044,2.986908 0.282909,0.0943 2.271848,-1.369324 4.635379,-3.410638 1.76309,-1.52273 4.08438,-2.929149 4.543901,-2.752804 0.292669,0.112289 0.127328,1.063466 -0.348811,2.005541 -0.51435,1.017641 -1.709139,2.674488 -2.806031,3.890725 -2.800908,3.105653 -4.57165,5.291481 -4.823999,5.955189 -0.16147,0.424735 -0.0428,0.438917 0.664559,0.0781 0.92637,-0.472573 2.781022,-2.133918 6.725171,-6.022896 l 3.853003,-3.799258 -1.02113,-3.140366 c -0.561774,-1.727226 -1.625894,-4.965039 -2.364714,-7.19492 z m -38.377501,2.374027 c -0.710649,0.04469 -1.050081,0.36068 -1.05833,0.967396 l -0.006,0.452147 0.330721,-0.02593 c 1.022979,-0.08051 0.989851,-0.0861 1.02113,0.184467 0.0407,0.35224 -0.267761,0.911278 -0.859901,1.558581 -0.522489,0.571183 -0.99115,1.260978 -0.85421,1.257274 0.0432,0 0.461402,-0.322845 0.92914,-0.715195 1.54577,-1.296644 3.358301,-2.391172 3.97134,-2.398316 0.10537,0 0.28602,0.06379 0.401521,0.144701 0.572699,0.401134 0.004,1.602845 -1.877401,3.969781 -1.041479,1.309979 -1.50327,1.99308 -1.50327,2.223638 0,0.09869 0.0271,0.179335 0.06,0.179335 0.37429,0 4.539911,-3.250618 5.49579,-4.288632 l 0.405661,-0.440293 -0.1695,-0.290935 c -0.30087,-0.516758 -1.269582,-1.329611 -1.96474,-1.648487 -0.945229,-0.433599 -2.675141,-0.971894 -3.486092,-1.084686 -0.3209,-0.04461 -0.598717,-0.0598 -0.835609,-0.04501 z m -4.321698,0.0925 c -0.0966,0.0061 -0.18202,0.01773 -0.24133,0.0372 -0.26041,0.08588 -0.56812,0.462227 -0.73742,0.90125 -0.11909,0.308769 -0.1447,0.442093 -0.1447,0.764302 v 0.390657 l 0.48421,-0.474371 c 0.26635,-0.260959 0.65034,-0.619892 0.85318,-0.797375 0.20284,-0.177482 0.42428,-0.39497 0.49196,-0.483685 0.11305,-0.148219 0.11684,-0.167931 0.047,-0.237728 -0.0748,-0.0748 -0.46324,-0.116866 -0.75292,-0.10025 z m 2.290817,0.334856 c -0.076,0 -0.74346,0.55298 -2.073257,1.716696 -2.05878,1.801654 -2.55909,2.061316 -4.15995,2.160085 -1.02741,0.06339 -1.21991,0.103743 -1.78026,0.376687 -0.58446,0.284772 -0.63902,0.295328 -0.78445,0.14986 -0.14542,-0.145415 -0.13717,-0.192457 0.11783,-0.679502 0.15075,-0.28792 0.56946,-0.83955 0.93017,-1.225789 0.36071,-0.386238 0.63439,-0.702283 0.60875,-0.702283 -0.22622,0 -1.50659,0.482362 -2.18746,0.824256 -1.36758,0.686673 -2.02165,1.13837 -2.22416,1.535298 l -0.18035,0.353483 0.91623,0.0527 c 1.14687,0.0657 2.0932,0.358431 3.52898,1.090877 3.0183,1.539743 4.82524,2.986776 7.431588,5.952623 3.08618,3.51192 4.875099,7.370233 5.26686,11.357425 0.074,0.753586 0.135879,1.384009 0.13694,1.401471 0.0011,0.01746 0.20375,-0.114035 0.45062,-0.29247 0.246859,-0.178435 1.171649,-0.846482 2.055169,-1.484683 2.564911,-1.852824 3.858382,-2.931928 3.702101,-3.088164 -0.0352,-0.03522 -0.436121,0.111072 -0.8909,0.325041 -2.023319,0.951838 -3.27211,1.287118 -3.79253,1.01801 -0.30436,-0.1574 -0.388609,-0.315965 -0.388609,-0.731731 0,-0.226986 0.130649,-0.415502 0.637688,-0.918819 0.350801,-0.348218 0.99949,-0.904584 1.441252,-1.236609 1.007409,-0.757106 3.370368,-2.72714 3.68505,-3.072157 l 0.236159,-0.258921 -0.23513,0.07231 c -0.12927,0.0399 -1.41425,0.639312 -2.85564,1.33223 -3.794299,1.824037 -3.983191,1.895713 -4.231269,1.596786 -0.352822,-0.425132 0.316108,-1.404461 3.278359,-4.797107 0.85085,-0.974461 1.523209,-1.771491 1.49396,-1.771491 -0.0292,0 -0.615879,0.403648 -1.30328,0.897122 -1.3643,0.979356 -3.012191,1.875261 -3.64577,1.982312 -0.497459,0.084 -0.894591,-0.06511 -1.043861,-0.392748 -0.099,-0.217196 -0.0701,-0.291941 0.289901,-0.758613 0.219589,-0.284613 1.124271,-1.217004 2.010731,-2.072217 2.511488,-2.422922 4.348929,-4.462436 4.175979,-4.635394 -0.102449,-0.102447 -0.681159,0.217382 -2.32751,1.286748 -3.36,2.182416 -4.666311,2.787756 -5.346441,2.477902 -0.192699,-0.08782 -0.228928,-0.171264 -0.228928,-0.528134 0,-0.490855 -0.230582,-0.705221 -0.565341,-0.526071 -0.229819,0.122978 -0.599,0.0399 -0.79789,-0.179838 -0.0817,-0.0903 -0.195181,-0.396769 -0.25218,-0.680587 -0.167809,-0.835608 -0.0268,-1.167422 0.887291,-2.087193 0.66589,-0.67011 2.847178,-3.557322 2.757969,-3.650429 -0.01669,-0.01746 -0.809961,0.523425 -1.762681,1.201473 -2.013839,1.433195 -2.951228,1.979797 -3.999759,2.332672 -1.420508,0.478023 -2.881988,0.266515 -2.881988,-0.417036 0,-0.205423 1.1594,-1.632559 2.08566,-2.567279 1.056138,-1.065768 1.613359,-1.816523 1.769907,-2.384345 0.0537,-0.194892 0.0739,-0.354516 0.0444,-0.354516 z m 37.462831,0.162269 c -0.25767,0 -1.761199,1.077489 -3.866949,2.771405 -2.94309,2.367465 -4.059351,3.003762 -6.409431,3.653525 -0.833001,0.23032 -1.533861,0.437436 -1.558041,0.459926 -0.0632,0.0589 1.420482,4.684236 1.752341,5.462719 l 0.279061,0.654738 0.94361,-0.989594 c 1.707978,-1.790145 6.113309,-7.279746 8.291478,-10.332191 0.659612,-0.924349 0.91535,-1.680528 0.567931,-1.680528 z m -27.27483,3.653023 c -0.36863,0 -1.396309,0.834946 -2.646341,2.14974 -0.763709,0.803275 -2.073259,2.233242 -2.073259,2.263907 0,0.01508 0.01,0.02791 0.0222,0.02791 0.0122,0 0.54877,-0.376237 1.192689,-0.836136 1.147371,-0.819414 2.361779,-1.818719 3.283522,-2.701634 0.402389,-0.385418 0.462499,-0.462994 0.462499,-0.598937 0,-0.175472 -0.10242,-0.304879 -0.241332,-0.304879 z m 1.86862,2.651495 c -0.01,-0.01005 -0.11975,0.0957 -0.243909,0.235665 -0.54769,0.61722 -1.41669,1.544531 -2.1425,2.286661 -0.43207,0.441749 -1.163961,1.260317 -1.62678,1.819011 -0.46282,0.558694 -0.884402,1.063439 -0.93689,1.121912 -0.25554,0.284666 0.186799,0.01799 2.048449,-1.236106 1.5674,-1.055794 2.03866,-1.408404 2.573491,-1.924421 0.49267,-0.475403 0.737039,-0.842327 0.740008,-1.110536 0.0021,-0.146314 -0.33152,-1.110747 -0.411869,-1.192186 z m -25.203618,0.758111 c -0.88003,0.009 -1.7601,0.138218 -2.64067,0.388594 -1.06813,0.303715 -3.06106,1.299554 -4.09846,2.047954 -2.48651,1.793849 -4.92913,4.474263 -7.3427,8.057383 -1.18398,1.75768 -1.75092,2.851811 -1.95751,3.778567 -0.20216,0.906886 -0.29149,4.949449 -0.13901,6.290569 0.33593,2.9545 1.22953,5.46294 2.68046,7.52409 1.16942,1.66127 3.15358,3.41728 4.7842,4.23387 1.36066,0.6814 3.36087,1.2828 4.83434,1.45364 1.19369,0.13841 3.86218,0.11703 5.06222,-0.0403 4.49927,-0.58979 8.32567,-2.33299 11.171409,-5.08961 1.850499,-1.79258 2.897458,-3.58661 3.394628,-5.8162 0.22697,-1.01796 0.217922,-4.50239 -0.015,-5.768128 -0.43044,-2.339207 -1.013528,-4.079451 -2.138381,-6.378416 -1.984346,-4.055613 -4.612356,-7.08324 -7.797446,-8.983954 -1.92808,-1.150567 -3.86205,-1.71696 -5.7981,-1.698069 z m 102.1797997,1.618985 c -0.7386007,0 -2.6716907,2.043404 -2.8246307,2.985903 -0.0695,0.428307 -0.0287,0.491516 0.642342,0.994754 1.484098,1.11297 3.3336999,1.925611 4.908738,2.156989 0.9657397,0.141843 1.4906307,0.149357 1.806612,0.0254 0.187878,-0.07369 -0.017489,-0.178832 -0.8015023,-0.409284 -2.4561376,-0.721943 -3.2597487,-1.18499 -3.2597487,-1.878437 0,-0.8187 1.2370091,-1.379961 4.2824189,-1.94355 0.974762,-0.180393 1.8382324,-0.335915 1.9187504,-0.345704 0.080499,-0.01005 -0.8156205,-0.09501 -1.9916087,-0.189151 -2.3104714,-0.184917 -3.0601709,-0.380497 -3.8338707,-1.000972 -0.2713197,-0.217593 -0.6527906,-0.395843 -0.8475002,-0.395843 z m -52.9471517,0.27186 c -0.0506,0 -1.06112,0.983588 -2.24586,2.185379 -1.73204,1.756965 -2.45907,2.388367 -3.710879,3.222545 l -1.55702,1.037141 1.47588,2.423636 c 3.819988,6.273588 4.900308,7.857991 7.16856,10.511501 1.33037,1.55633 1.397238,1.61332 1.61644,1.37821 0.525288,-0.56353 3.532388,-4.26934 5.025009,-6.192385 2.241042,-2.887292 2.374352,-3.070834 2.287722,-3.157432 -0.0422,-0.0422 -0.80487,0.485696 -1.694989,1.173057 -3.496072,2.699676 -4.873562,3.54454 -5.994464,3.67728 -1.389229,0.16455 -1.715389,-0.978054 -0.76998,-2.698004 0.636001,-1.15705 1.524331,-2.331826 3.483502,-4.607508 1.89851,-2.205143 2.670598,-3.19106 2.575039,-3.286601 -0.10404,-0.10406 -2.65706,2.133706 -3.84782,3.372406 -0.55536,0.577691 -1.608,1.707383 -2.338879,2.510446 -2.75244,3.024267 -4.118161,3.447997 -4.125331,1.279498 -0.003,-0.894503 0.423781,-1.863195 1.81746,-4.122737 0.76358,-1.237959 1.286841,-1.884389 2.553851,-3.155871 1.544569,-1.550061 2.883389,-3.208258 2.721279,-3.370368 -0.096,-0.09599 -0.925991,0.525515 -3.226681,2.415381 -1.94823,1.600359 -3.784769,2.902347 -4.64054,3.290729 -1.163709,0.528214 -1.926148,0.239501 -1.802469,-0.682625 0.0832,-0.620078 0.554069,-1.317519 2.381761,-3.528457 1.856999,-2.246392 2.964058,-3.675221 2.848409,-3.675221 z m -22.88232,0.95033 c -0.0648,-0.004 -0.132649,0.0026 -0.203089,0.01958 -0.465421,0.11856 -0.944521,0.525833 -1.996782,1.697038 -0.598148,0.665771 -1.28829,1.40171 -1.53376,1.635575 -0.527878,0.502946 -1.841749,2.059622 -1.841749,2.182283 0,0.132345 0.125561,0.106627 0.952921,-0.195342 1.419399,-0.518001 3.969358,-2.035281 4.9692,-2.956904 0.392848,-0.362135 0.409279,-0.399071 0.409279,-0.930195 0,-0.862092 -0.30281,-1.421712 -0.75602,-1.452087 z m 32.994883,3.419925 c -0.0581,-0.0585 -0.619811,0.603171 -1.2485,1.47021 -0.628701,0.866987 -2.295943,2.985744 -3.704694,4.708234 -2.42498,2.965027 -3.211689,4.041881 -3.211689,4.396634 0,0.08538 0.152299,0.155549 0.338489,0.155549 1.019752,0 5.858722,-3.304275 7.480163,-5.107702 1.09253,-1.215152 1.46804,-1.846527 1.45262,-2.442739 -0.0127,-0.492019 -0.862581,-2.934838 -1.106389,-3.180186 z m -31.368114,1.633511 c -0.346038,1.59e-4 -1.38602,0.595577 -3.425119,1.961118 -1.80422,1.20822 -3.486441,2.518357 -3.375501,2.629297 0.105931,0.105913 1.43211,-0.298741 2.023131,-0.617537 1.639261,-0.884185 2.98921,-1.33657 3.41271,-1.143609 0.20606,0.0939 0.22819,0.151421 0.18501,0.473366 -0.122521,0.913395 -1.649209,2.437606 -4.958879,4.950592 -1.202891,0.913342 -2.10271,1.752119 -2.10271,1.960059 0,0.1397 0.98425,-0.20926 1.606108,-0.56946 0.337812,-0.19564 1.124551,-0.684611 1.748211,-1.086222 1.70136,-1.09564 2.966579,-1.698757 3.572909,-1.703255 0.458531,-0.0029 0.492181,0.01191 0.518832,0.241326 0.0385,0.331656 -0.323231,0.772134 -2.513031,3.058211 -0.993629,1.0373 -1.791711,1.90101 -1.773531,1.91926 0.0182,0.0183 0.196141,-0.0547 0.39584,-0.16174 0.55013,-0.29485 1.329981,-0.23146 1.569411,0.12713 0.426461,0.63868 -0.8553,2.72156 -3.3786,5.49011 -1.015571,1.11427 -1.645081,1.85044 -1.757,2.05515 -0.127391,0.23297 -0.0314,0.20706 0.456819,-0.12245 1.58259,-1.0681 4.608902,-3.92274 5.821871,-5.49166 1.67142,-2.16194 2.120119,-3.9618 2.435511,-9.764795 0.151558,-2.788735 -0.004,-4.205103 -0.461992,-4.204891 z m 33.872874,4.018862 c -0.0667,0 -0.67536,0.757555 -1.352892,1.683623 -0.677529,0.926042 -1.923589,2.506319 -2.768819,3.511921 -0.845251,1.00557 -1.939383,2.39792 -2.431381,3.09388 -0.492,0.69596 -1.198321,1.62353 -1.569931,2.06137 -0.371621,0.4378 -0.675929,0.87746 -0.675929,0.97668 0,0.4114 0.94279,-0.41992 3.636468,-3.20754 3.146044,-3.255754 4.056724,-3.977062 5.021403,-3.977062 0.74822,0 1.09761,0.278501 1.09761,0.875427 0,0.564755 -0.474001,1.438595 -2.05052,3.778065 -1.254231,1.86118 -1.417609,2.16162 -1.17306,2.16162 0.0646,0 0.98184,-0.57587 2.03812,-1.28003 2.042951,-1.36197 2.790809,-1.79369 3.109889,-1.79369 0.616082,3e-5 0.338042,0.84458 -1.056788,3.20757 -1.39441,2.36228 -1.551041,2.82258 -0.88831,2.61223 0.146648,-0.0465 1.209858,-0.65058 2.362639,-1.34255 1.15279,-0.69199 2.303471,-1.32662 2.55695,-1.41025 0.610369,-0.20143 1.090609,-0.0698 1.190111,0.3266 0.108048,0.43053 -0.33025,1.26357 -2.176092,4.13721 -1.45655,2.26756 -2.17166,3.55917 -2.174549,3.92845 -7.94e-4,0.0919 0.0637,0.16743 0.14315,0.16743 0.253719,0 1.604581,-0.95734 3.597709,-2.54971 2.06951,-1.65338 3.073201,-2.64297 3.073201,-3.02876 0,-0.30795 -0.675701,-1.29524 -1.806609,-2.64015 -2.259862,-2.6875 -4.053192,-5.26155 -6.076122,-8.719869 -0.827609,-1.41486 -1.5596,-2.572465 -1.626248,-2.572465 z m 0.0145,4.954217 c -0.28544,-0.004 -1.004591,0.534487 -2.084631,1.564247 -1.26142,1.20271 -6.060612,6.2322 -6.060612,6.35156 0,0.0369 0.434411,0.38851 0.96479,0.78134 0.530392,0.39282 1.50128,1.15025 2.15801,1.68312 0.656744,0.53287 1.238584,0.96893 1.292953,0.96893 0.21585,0 2.246289,-2.29013 3.001359,-3.38535 0.441,-0.63963 1.057212,-1.52241 1.369431,-1.96215 0.312221,-0.43971 0.53435,-0.79943 0.493511,-0.79943 -0.0408,0 -1.013502,0.57877 -2.161111,1.28624 -2.357959,1.45362 -3.279241,1.91662 -3.811133,1.91926 -0.288358,0 -0.367419,-0.0609 -0.367419,-0.28837 0,-0.60899 1.420461,-2.75402 3.701582,-5.58982 1.311799,-1.63079 1.76118,-2.332621 1.598869,-2.494943 -0.02291,-0.02302 -0.0548,-0.034 -0.0956,-0.03461 z m -38.805392,0.875397 c -0.29495,0.0668 -2.147089,1.13583 -2.620511,1.52395 -1.00253,0.8219 -1.35151,1.38766 -1.6521,2.67941 -0.10631,0.45688 -0.534369,2.00004 -0.95136,3.42926 -0.416988,1.42923 -0.781568,2.68349 -0.810278,2.78742 -0.0966,0.34962 5.363879,-5.07384 6.404258,-6.36085 1.023411,-1.26603 0.617101,-1.29559 -1.07849,-0.0791 -0.94961,0.6813 -1.850538,1.12535 -2.201928,1.08521 -0.25078,-0.0287 -0.27332,-0.0649 -0.299731,-0.4744 -0.0499,-0.77459 0.452279,-1.55106 2.180749,-3.37137 0.61218,-0.64471 1.092192,-1.19338 1.066602,-1.21904 -0.005,-0.005 -0.01749,-0.005 -0.0372,0 z m 44.231411,6.48436 c -0.0368,0 -0.0878,0.009 -0.143658,0.03 -0.18511,0.071 -3.593301,2.24208 -6.522082,4.15478 l -1.179259,0.76999 1.64745,1.1126 c 0.905901,0.61185 1.687401,1.11633 1.736841,1.12083 0.280498,0.0262 4.520658,-6.68044 4.520658,-7.15047 0,-0.0236 -0.0231,-0.0363 -0.0599,-0.0377 z m 5.614131,3.21532 c -0.0971,0.004 -0.2232,0.0354 -0.378791,0.0946 -0.648949,0.24672 -2.431309,1.42216 -4.87412,3.2153 l -2.430338,1.7844 1.364768,0.62269 c 1.808031,0.82463 3.09934,1.31356 4.639512,1.75753 1.460399,0.42095 2.092449,0.46617 2.502688,0.1788 0.355632,-0.24908 1.875412,-2.49695 1.985931,-2.9373 0.196159,-0.78155 -0.328179,-0.7534 -2.484091,0.13386 -2.100879,0.8646 -3.600839,1.20533 -3.811138,0.86505 -0.12959,-0.20968 0.486878,-1.15448 1.480018,-2.26809 1.948321,-2.18463 2.685511,-3.47533 2.005561,-3.4468 z m 1.351851,1.04127 c -0.178742,0 -1.762911,2.64924 -1.651061,2.76108 0.01921,0.0193 0.500441,-0.11326 1.069711,-0.29405 1.274619,-0.40476 2.615578,-0.44797 2.925908,-0.0946 0.11295,0.12862 0.24289,0.35608 0.288361,0.50591 0.128151,0.42236 -0.28026,1.77345 -0.826309,2.7337 -0.271852,0.47808 -0.53739,0.97467 -0.59014,1.10329 -0.062,0.15123 -0.0352,0.2341 0.076,0.2341 0.641561,0 4.22997,-1.37573 4.76663,-1.82729 0.543031,-0.45691 0.50056,-0.65458 -0.17725,-0.82526 -0.434681,-0.10943 -1.09724,-0.57986 -2.710939,-1.92495 -1.925492,-1.60494 -2.950671,-2.37196 -3.17087,-2.37196 z m 7.43779,5.76969 c -0.335381,0.0646 -0.710941,0.78682 -0.799952,1.53839 -0.0875,0.73856 0.0552,0.94044 0.789101,1.11466 0.431541,0.10232 5.04362,0.17569 5.04362,0.0801 0,-0.0888 -2.841646,-1.78374 -3.83749,-2.28872 -0.530421,-0.26898 -1.06819,-0.46876 -1.195279,-0.44442 z m -1.96473,0.57049 -1.022162,0.52298 c -1.055058,0.53967 -1.507088,0.89757 -1.384419,1.09606 0.0495,0.0801 0.249459,0.095 0.682651,0.0507 1.077468,-0.11038 1.72393,-0.59803 1.72393,-1.30018 z"
         id="path4935" />
    </clipPath>
    <filter
       id="filter4922"
       style="color-interpolation-filters:sRGB">
      <feFlood
         id="feFlood4912"
         result="flood"
         flood-color="rgb(255,255,255)"
         flood-opacity="1" />
      <feComposite
         id="feComposite4914"
         result="composite1"
         operator="in"
         in2="flood"
         in="SourceGraphic" />
      <feGaussianBlur
         id="feGaussianBlur4916"
         result="blur"
         stdDeviation="6.77083"
         in="composite1" />
      <feOffset
         id="feOffset4918"
         result="offset"
         dy="0"
         dx="0" />
      <feComposite
         id="feComposite4920"
         result="composite2"
         operator="over"
         in2="offset"
         in="SourceGraphic" />
    </filter>
  </defs>
  <metadata
     id="metadata5">
    <rdf:RDF>
      <cc:Work
         rdf:about="">
        <dc:format>image/svg+xml</dc:format>
        <dc:type
           rdf:resource="http://purl.org/dc/dcmitype/StillImage" />
        <dc:title></dc:title>
      </cc:Work>
    </rdf:RDF>
  </metadata>
  <g
     id="layer1"
     transform="translate(94.808077,-105.12579)">
    <g
       id="g5110"
       transform="translate(280.85482,-13.333904)">
      <g
         clip-path="url(#clipPath4933)"
         transform="translate(-227.43665,160.73045)"
         id="g4715">
        <path
           id="path4595"
           d="M -129.26785,2.934537 V 121.33558 h 252.5889 252.5889 V 2.934537 -115.4665 h -252.5889 -252.5889 z"
           style="fill:#f893f2;stroke-width:0.63147223" />
        <path
           id="path4593"
           d="M -129.26785,2.934537 V 121.33558 h 252.5889 252.5889 V 2.934537 -115.4665 h -87.02503 -87.02503 l -1.78043,1.85837 -1.78043,1.85837 2.9941,11.56041 c 1.64676,6.358228 5.09434,19.593999 7.66128,29.412818 2.56695,9.818818 4.66717,18.268169 4.66717,18.776333 0,1.378113 -2.95511,4.358333 -7.66528,7.730426 -2.30571,1.650688 -9.26769,6.809222 -15.47107,11.463399 -6.20339,4.654178 -14.54675,10.887093 -18.54082,13.850914 -3.99406,2.963821 -10.00235,7.441464 -13.35175,9.950322 -3.3494,2.508859 -6.63267,4.852081 -7.29615,5.207171 -0.66349,0.355083 -6.87419,1.119745 -13.80156,1.699241 -10.62996,0.889239 -14.31951,0.942264 -23.64599,0.339833 C 92.776001,-3.120063 95.930861,-2.248486 84.801239,-9.783755 56.196834,-29.150276 27.136936,-49.449954 26.479403,-50.524246 c -0.470712,-0.769064 -0.01099,-3.280814 1.733536,-9.472083 1.305759,-4.634021 3.321614,-11.835444 4.479677,-16.003161 1.15807,-4.167716 3.266814,-11.698022 4.686105,-16.734013 1.419297,-5.035991 3.197024,-11.365577 3.950516,-14.065737 l 1.369985,-4.90939 -1.800138,-1.87894 -1.800132,-1.87893 h -84.183403 -84.183399 z"
           style="fill:#e45ffa;stroke-width:0.63147223" />
        <path
           id="path4591"
           d="M -129.26785,2.934537 V 121.33558 h 252.5889 252.5889 V 2.934537 -115.4665 h -48.00444 -48.00444 l -2.35547,1.50312 c -4.75459,3.03411 -4.84726,3.26699 -7.69352,19.33546 -1.44573,8.161778 -2.92233,15.775262 -3.28133,16.918858 -0.61276,1.951957 -1.85734,2.684572 -20.32835,11.966152 -10.8216,5.437791 -21.53722,10.755027 -23.81249,11.816083 -4.7697,2.224317 -7.54538,3.942603 -7.54538,4.670981 0,0.279635 2.2733,3.253339 5.05177,6.608224 2.77848,3.35488 5.05178,6.363725 5.05178,6.686319 0,0.322587 0.25707,0.681244 0.57128,0.797019 0.3142,0.115767 3.09051,3.336276 6.16957,7.156683 3.07907,3.820406 6.21128,7.6566 6.96047,8.524874 4.44954,5.156779 11.55757,14.038392 11.55757,14.441385 0,0.260804 0.88621,1.380625 1.96935,2.488487 1.84405,1.886138 1.88193,2.014295 0.59536,2.014295 -0.75568,0 -2.56542,-0.26052 -4.02163,-0.57894 -1.4562,-0.31842 -4.92095,-1.024191 -7.69943,-1.568388 -2.77847,-0.544196 -7.75132,-1.551363 -11.05076,-2.238139 -3.29944,-0.686777 -8.41437,-1.698459 -11.3665,-2.24818 -2.95213,-0.549722 -6.57928,-1.271173 -8.06033,-1.603226 -3.62889,-0.813608 -6.05469,-0.75999 -6.96871,0.154028 -0.92615,0.926156 -0.98203,4.093696 -0.11603,6.577895 0.35295,1.012477 0.7442,3.399221 0.86945,5.303874 0.12525,1.904653 0.52403,4.315494 0.88619,5.357423 0.36215,1.041929 1.12439,5.020204 1.69388,8.840611 0.56948,3.820407 1.58689,9.888419 2.26091,13.484476 0.67402,3.596052 1.2255,6.781873 1.2255,7.0796 0,0.29772 -1.45395,0.973092 -3.23099,1.50082 -1.77705,0.527721 -5.40012,1.788626 -8.05127,2.802 -2.65116,1.01338 -8.23023,3.024713 -12.39795,4.469633 -4.16772,1.44492 -8.21703,2.89458 -8.99848,3.22145 -7.93535,3.31929 -8.34453,3.41144 -10.4896,2.36233 -11.23501,-5.49476 -17.81071,-8.580069 -31.34544,-14.707225 -4.34137,-1.965331 -8.16336,-3.836282 -8.4933,-4.157669 -1.49984,-1.460949 -6.1726,-0.541071 -13.47192,2.652069 -4.06903,1.780032 -9.38738,4.049815 -11.81854,5.04396 -2.431173,0.994146 -5.55696,2.361024 -6.946199,3.037514 -1.389239,0.676481 -5.225433,2.269401 -8.524876,3.539801 -3.299442,1.2704 -7.509063,3.023 -9.354718,3.89464 l -3.355725,1.58482 -5.611244,-1.95944 c -3.086182,-1.07769 -5.950054,-1.95943 -6.364148,-1.95943 -0.414094,0 -3.340943,-1.02447 -6.504094,-2.2766 -3.163159,-1.25213 -7.598253,-2.793935 -9.855767,-3.426234 -7.293858,-2.042901 -15.37597,-4.999625 -15.897213,-5.815771 -0.279287,-0.437307 -0.339119,-1.221349 -0.132956,-1.742314 0.479161,-1.210804 1.881983,-7.766698 2.36463,-11.050764 0.793577,-5.399706 2.592598,-15.012841 4.82465,-25.780667 0.875214,-4.222181 0.789347,-7.717658 -0.209958,-8.547008 -0.619696,-0.514303 -2.160355,-0.441058 -5.841119,0.277702 -2.749676,0.536935 -6.420222,1.22702 -8.156771,1.533512 -1.736549,0.306497 -8.69853,1.583561 -15.47107,2.837924 -14.35882,2.659439 -18.22098,3.338038 -22.101529,3.883365 l -2.841625,0.399324 1.262945,-1.504015 c 0.694619,-0.82721 1.760229,-1.878119 2.368021,-2.335349 0.607792,-0.45723 1.105076,-1.190218 1.105076,-1.628857 0,-0.43864 0.639366,-1.374103 1.420813,-2.078807 0.781446,-0.704704 3.836193,-3.919453 6.788326,-7.143889 2.952133,-3.224436 5.804525,-6.322173 6.338649,-6.883868 0.534118,-0.561688 1.718388,-2.015823 2.631692,-3.231407 0.913311,-1.215585 5.945179,-7.040916 11.181922,-12.945181 5.236748,-5.904265 9.42879,-11.01919 9.315649,-11.3665 -0.113141,-0.347309 -0.893331,-0.989075 -1.733764,-1.426142 -2.045617,-1.063828 -16.444055,-7.730205 -16.696164,-7.730205 -0.109346,0 -4.555725,-2.017452 -9.880836,-4.483225 -5.325111,-2.465773 -11.102836,-5.135322 -12.839384,-5.932328 -13.817617,-6.341755 -13.969562,-6.42732 -14.695408,-8.275368 -0.395737,-1.007558 -2.032734,-8.67041 -3.637773,-17.028557 -1.605038,-8.358148 -3.109527,-15.495478 -3.343298,-15.860738 -0.233777,-0.36526 -2.045332,-1.69644 -4.02568,-2.95819 l -3.600635,-2.29409 h -41.707503 -41.707496 z"
           style="fill:#d630fa;stroke-width:0.63147223" />
        <path
           id="path4589"
           d="M -129.26785,2.934537 V 121.33558 h 252.5889 252.5889 V 2.934537 -115.4665 h -35.62556 c -37.65006,0 -36.79463,-0.0681 -35.69227,2.84162 0.26316,0.69462 0.96619,2.96792 1.56228,5.05178 0.59609,2.08386 2.30021,7.48295 3.78693,11.997972 1.48672,4.515026 4.46416,13.608226 6.61655,20.207111 2.15239,6.598884 4.22104,12.773874 4.59702,13.7222 0.37596,0.948326 0.52093,1.886864 0.32215,2.085652 -0.19879,0.198781 -3.44852,-0.630512 -7.22163,-1.842876 -3.77312,-1.212363 -10.27016,-3.237425 -14.43788,-4.50013 -4.16771,-1.262711 -8.14599,-2.541966 -8.84061,-2.842787 -0.69462,-0.300827 -4.24665,-1.445023 -7.8934,-2.542661 -3.64675,-1.097637 -8.31165,-2.535683 -10.36643,-3.195653 -2.05479,-0.659977 -3.82235,-1.113582 -3.9279,-1.008025 -0.10557,0.105563 2.28603,2.895716 5.31465,6.200343 12.83137,14.00073 27.95505,30.750209 30.12741,33.366095 1.28654,1.549222 2.68775,3.112116 3.11378,3.473097 0.42604,0.360981 2.58027,2.726843 4.78718,5.257467 3.42433,3.926627 3.88038,4.723451 3.11088,5.435473 -0.49594,0.458885 -3.8854,1.900226 -7.53215,3.202979 -12.05999,4.308263 -32.44978,11.825125 -36.94113,13.618645 -2.43117,0.970832 -6.6042,2.531352 -9.2734,3.467831 -2.6692,0.936473 -4.98585,2.048622 -5.1481,2.471443 -0.16225,0.422815 0.66277,3.517717 1.83338,6.877554 1.1706,3.359836 1.98273,6.488333 1.80473,6.952212 -0.17801,0.463873 -2.65533,1.908366 -5.50516,3.209975 -2.84983,1.301604 -8.02313,3.751722 -11.49623,5.444705 -3.4731,1.692977 -9.15635,4.392913 -12.62944,5.999845 -3.4731,1.606933 -9.15635,4.281388 -12.62945,5.943234 -3.4731,1.661839 -7.59345,3.353085 -9.15635,3.758314 -1.56289,0.405228 -5.39908,1.690476 -8.52487,2.856111 -3.12579,1.165628 -9.0932,3.302761 -13.26092,4.749181 -4.16772,1.44642 -8.21703,2.8973 -8.99848,3.22417 -7.93535,3.31929 -8.34453,3.41144 -10.4896,2.36233 -11.23501,-5.49476 -17.81071,-8.580069 -31.34544,-14.707225 -4.34137,-1.965331 -8.16336,-3.836282 -8.4933,-4.157669 -1.49984,-1.460949 -6.1726,-0.541071 -13.47192,2.652069 -4.06903,1.780032 -9.38738,4.049815 -11.81854,5.04396 -2.431173,0.994146 -5.55696,2.361024 -6.946199,3.037514 -1.389239,0.676481 -5.225433,2.269401 -8.524876,3.539801 -3.299442,1.2704 -7.509063,3.023 -9.354718,3.89464 l -3.355725,1.58482 -5.611244,-1.95944 c -3.086182,-1.07769 -5.950054,-1.95943 -6.364148,-1.95943 -0.414094,0 -3.340943,-1.02447 -6.504095,-2.2766 -3.163158,-1.25213 -7.598253,-2.793935 -9.855766,-3.426234 -2.257513,-0.632293 -6.65167,-2.023206 -9.764796,-3.090911 -3.113127,-1.067706 -6.111869,-1.941285 -6.663864,-1.941285 -0.552001,0 -3.403982,-1.164321 -6.337746,-2.587375 C 19.949796,34.602281 14.707819,32.295494 11.234722,30.899139 7.761624,29.502789 4.209593,27.981832 3.341318,27.519241 1.445999,26.509472 -6.74724,22.825912 -7.097934,22.825912 c -0.136171,0 -2.318609,-0.955026 -4.849853,-2.122277 -2.53125,-1.167251 -5.905635,-2.593842 -7.498632,-3.170199 -5.477219,-1.981705 -5.448866,-1.905329 -3.093487,-8.334297 3.215153,-8.775677 3.368172,-8.394236 -4.429444,-11.041569 -3.646752,-1.238096 -11.31914,-3.893203 -17.04975,-5.900243 -5.730614,-2.007033 -11.271784,-3.893733 -12.313714,-4.19266 -7.74356,-2.221582 -27.75383,-9.476225 -28.16511,-10.211145 -0.50935,-0.910154 3.47426,-5.108667 38.364497,-40.434227 12.780916,-12.940381 13.076066,-13.444252 6.765013,-11.549059 -1.689599,0.507382 -5.203224,1.536631 -7.808048,2.287218 -2.604822,0.750587 -6.298932,1.861277 -8.209142,2.468198 -1.9102,0.606926 -5.17807,1.564731 -7.26193,2.128459 -2.08386,0.563734 -6.34629,1.758574 -9.47208,2.655202 -3.12579,0.896633 -8.06892,2.304027 -10.98474,3.127542 -2.91583,0.823516 -5.60116,1.796968 -5.96742,2.163222 -1.98126,1.981263 -2.21932,-0.48838 -0.44589,-4.625635 0.67671,-1.578706 2.50652,-6.64615 4.06624,-11.260987 4.49257,-13.292471 10.28555,-30.165825 11.70977,-34.107325 2.47261,-6.84295 5.41661,-6.17263 -27.109946,-6.17263 h -28.41625 z"
           style="fill:#a564f2;stroke-width:0.63147223" />
        <path
           id="path4587"
           d="M -129.26785,2.934537 V 121.33558 l 86.03809,-0.0242 86.038094,-0.0242 3.048451,-9.30074 c 3.447479,-10.51813 3.486908,-8.98817 -0.556453,-21.592983 -1.504034,-4.68868 -3.927701,-12.36107 -5.385928,-17.04975 -1.458233,-4.68868 -3.855523,-12.21899 -5.327308,-16.73401 -1.471791,-4.51503 -3.300459,-10.34036 -4.063714,-12.945182 L 29.135646,38.928473 22.079601,35.649667 C 18.198774,33.846322 12.591295,31.396134 9.618532,30.204798 6.645769,29.013469 3.662062,27.730905 2.988073,27.354667 c -1.45949,-0.814731 -9.731,-4.528735 -10.086007,-4.528735 -0.136171,0 -2.318609,-0.955026 -4.849853,-2.122277 -2.53125,-1.167251 -5.905635,-2.593842 -7.498632,-3.170199 -5.477219,-1.981705 -5.448866,-1.905329 -3.093487,-8.334297 3.215153,-8.775677 3.368172,-8.394236 -4.429444,-11.041569 -3.646752,-1.238096 -11.31914,-3.893203 -17.04975,-5.900243 -5.730614,-2.007033 -11.271784,-3.893733 -12.313714,-4.19266 -7.74356,-2.221582 -27.75383,-9.476225 -28.16511,-10.211145 -0.50935,-0.910154 3.47426,-5.108667 38.364497,-40.434227 12.780916,-12.940381 13.076066,-13.444252 6.765013,-11.549059 -1.689599,0.507382 -5.203224,1.536631 -7.808048,2.287218 -2.604822,0.750587 -6.298932,1.861277 -8.209142,2.468198 -1.9102,0.606926 -5.17807,1.564731 -7.26193,2.128459 -2.08386,0.563734 -6.34629,1.758574 -9.47208,2.655202 -3.12579,0.896633 -8.06892,2.304027 -10.98474,3.127542 -2.91583,0.823516 -5.60116,1.796968 -5.96742,2.163222 -1.98126,1.981263 -2.21932,-0.48838 -0.44589,-4.625635 0.67671,-1.578706 2.50652,-6.64615 4.06624,-11.260987 4.49257,-13.292471 10.28555,-30.165825 11.70977,-34.107325 2.47261,-6.84295 5.41661,-6.17263 -27.109946,-6.17263 h -28.41625 z M 304.38624,-114.67716 c -0.14992,0.43413 -0.0573,1.35766 0.20588,2.05228 0.26316,0.69462 0.96619,2.96792 1.56228,5.05178 0.59609,2.08386 2.30021,7.48294 3.78693,11.997972 1.48672,4.515026 4.46416,13.608226 6.61655,20.207111 2.15239,6.598884 4.22104,12.773874 4.59702,13.7222 0.37596,0.948326 0.52093,1.886864 0.32215,2.085652 -0.19879,0.198781 -3.44852,-0.630513 -7.22163,-1.842876 -3.77312,-1.212364 -10.27016,-3.237426 -14.43788,-4.50013 -4.16771,-1.262711 -8.14599,-2.541966 -8.84061,-2.842787 -0.69462,-0.300827 -4.24665,-1.445023 -7.8934,-2.542661 -3.64675,-1.097637 -8.31165,-2.535683 -10.36643,-3.195653 -2.05479,-0.659977 -3.82235,-1.113582 -3.9279,-1.008025 -0.10557,0.105563 2.28603,2.895716 5.31465,6.200343 12.83137,14.00073 27.95505,30.750209 30.12741,33.366095 1.28654,1.549222 2.68775,3.112116 3.11378,3.473097 0.42604,0.360981 2.58027,2.726843 4.78718,5.257467 3.42433,3.926627 3.88038,4.723451 3.11088,5.435473 -0.49594,0.458885 -3.8854,1.900226 -7.53215,3.202979 -12.05999,4.308263 -32.44978,11.825125 -36.94113,13.618645 -2.43117,0.970832 -6.6042,2.531352 -9.2734,3.467831 -2.6692,0.936473 -4.98585,2.048622 -5.1481,2.471443 -0.16225,0.422815 0.66277,3.517717 1.83338,6.877554 1.1706,3.359836 1.98273,6.488333 1.80473,6.952212 -0.17801,0.463873 -2.65533,1.908366 -5.50516,3.209975 -2.84983,1.301604 -8.02313,3.751722 -11.49623,5.444705 -3.4731,1.692977 -9.15635,4.395641 -12.62944,6.005907 -16.18309,7.503141 -19.86206,9.448883 -19.87664,10.51239 -0.008,0.591449 -0.2816,1.728099 -0.60777,2.525889 -0.5494,1.343829 -2.12901,6.790959 -9.21036,31.761189 -1.47741,5.20965 -3.85432,13.36103 -5.28201,18.11418 -1.42771,4.75315 -2.59582,9.141683 -2.59582,9.752283 0,0.61061 1.32075,5.1755 2.935,10.1442 l 2.93499,9.03402 h 88.62848 88.62848 V 2.934537 -115.4665 h -35.62556 c -27.93409,0 -35.68441,0.17041 -35.89815,0.78934 z"
           style="fill:#ab2ff4;stroke-width:0.63147223" />
        <path
           id="path4585"
           d="M -129.26785,2.934537 V 121.33558 h 56.516766 c 41.98963,0 56.516763,-0.18563 56.516763,-0.72219 0,-0.3972 -1.375119,-3.0257 -3.055821,-5.84111 -1.680695,-2.81542 -3.848084,-6.59427 -4.816415,-8.39745 -0.968325,-1.80318 -2.145882,-3.42636 -2.616784,-3.60706 -0.527809,-0.20254 -0.691133,-0.75868 -0.425827,-1.45005 0.494601,-1.28892 9.79728,-12.238603 17.864912,-21.027833 3.02856,-3.29945 6.923513,-7.70396 8.655452,-9.78782 1.731945,-2.08386 4.257272,-4.97349 5.611843,-6.42139 1.354565,-1.44791 3.649594,-4.00537 5.100067,-5.68325 3.392881,-3.92484 9.096781,-10.35009 13.307456,-14.99039 1.823377,-2.009426 3.31523,-4.04869 3.31523,-4.53171 0,-1.04549 -6.308825,-4.309665 -15.286384,-7.909126 C 7.844732,29.532968 4.209593,27.981832 3.341318,27.519241 1.445999,26.509472 -6.74724,22.825912 -7.097934,22.825912 c -0.136171,0 -2.318609,-0.955026 -4.849853,-2.122277 -2.53125,-1.167251 -5.905635,-2.593842 -7.498632,-3.170199 -5.477219,-1.981705 -5.448866,-1.905329 -3.093487,-8.334297 3.215153,-8.775677 3.368172,-8.394236 -4.429444,-11.041569 -3.646752,-1.238096 -11.31914,-3.893203 -17.04975,-5.900243 -5.730614,-2.007033 -11.271784,-3.893733 -12.313714,-4.19266 -7.74356,-2.221582 -27.75383,-9.476225 -28.16511,-10.211145 -0.50935,-0.910154 3.47426,-5.108667 38.364497,-40.434227 11.248301,-11.388652 13.935437,-14.370704 10.242379,-11.3665 -0.747158,0.607792 -4.265677,3.946701 -7.818928,7.419799 -3.55325,3.473097 -8.050738,7.735534 -9.994418,9.472083 -1.94368,1.736548 -3.54334,3.396998 -3.55479,3.689894 -0.0114,0.292889 -1.16295,1.713702 -2.55886,3.157361 -8.1077,8.384991 -11.51567,11.830461 -14.77597,14.938536 -2.00375,1.910204 -3.90494,4.142199 -4.22485,4.959987 -0.47304,1.2092 -0.88627,1.410431 -2.21266,1.077532 -1.18592,-0.297651 -1.55125,-0.186443 -1.33878,0.407526 0.40552,1.133632 -0.66424,3.027038 -1.71025,3.027038 -5.31123,-16.940217 -5.74599,-20.252575 -8.60899,-32.520818 -0.388,-1.772897 -6.77811,-15.553338 -16.669186,-35.947605 -2.34585,-4.836868 -5.49919,-11.514688 -7.00744,-14.839598 l -2.74226,-6.0453 -3.81676,-0.0923 c -2.40303,-0.0581 -3.81677,0.16407 -3.81677,0.5999 0,0.46559 -0.2481,0.44414 -0.75777,-0.0655 -0.41677,-0.41677 -0.98509,-0.75776 -1.26294,-0.75776 -0.27785,0 -0.50518,53.280463 -0.50518,118.401035 z M 347.10293,-114.36143 c -0.81919,2.57819 -7.22499,17.423212 -12.79669,29.655479 -1.77377,3.894195 -4.04806,9.151201 -5.05399,11.682236 -1.00592,2.531042 -2.85683,6.796479 -4.11314,9.478746 -1.25631,2.682272 -2.2106,5.239735 -2.12064,5.683249 0.0983,0.484857 -0.37557,0.751276 -1.18851,0.668155 -1.15743,-0.118338 -1.41591,0.290704 -1.79564,2.841625 -0.24398,1.638929 -0.66303,3.264029 -0.93123,3.611339 -0.52682,0.682217 -1.15129,3.15875 -1.6527,6.554347 -0.20995,1.421823 0.0169,2.500927 0.67974,3.233346 0.81667,0.902412 0.86096,1.393192 0.24727,2.740071 -0.41116,0.902418 -0.96041,1.509219 -1.22054,1.348453 -0.26013,-0.160773 -0.62886,0.113942 -0.8194,0.610475 -0.19053,0.496527 -0.0318,1.007666 0.3528,1.135855 1.02655,0.342182 1.05939,4.938213 0.0498,6.971131 -0.47938,0.9653 -0.65898,2.10195 -0.3991,2.525889 0.26768,0.436682 -0.20015,0.335109 -1.07928,-0.234327 -0.85347,-0.552816 -1.82473,-1.600934 -2.15837,-2.329154 -0.33363,-0.72822 -1.13133,-1.461245 -1.77265,-1.628958 -0.64132,-0.167706 -1.49626,-1.179767 -1.89986,-2.24902 -0.40359,-1.069253 -1.01464,-1.944094 -1.35787,-1.944094 -1.13123,0 -9.83409,-9.426138 -9.83409,-10.651383 0,-0.679332 -0.56321,-1.346577 -1.29904,-1.538999 -0.71448,-0.18684 -1.63353,-1.225839 -2.04234,-2.308896 -0.4088,-1.083051 -1.31608,-2.114188 -2.01618,-2.291417 -0.70009,-0.177223 -1.81925,-1.451565 -2.48703,-2.831869 -0.74147,-1.532652 -1.78624,-2.653238 -2.68375,-2.878496 -0.80829,-0.202867 -1.46963,-0.628151 -1.46963,-0.945068 0,-0.316917 -2.84162,-3.419826 -6.31472,-6.895355 -3.4731,-3.475522 -6.31472,-6.737454 -6.31472,-7.248732 0,-0.511272 -0.33966,-0.92959 -0.75479,-0.92959 -0.41514,0 -1.60908,-0.781447 -2.65321,-1.736549 -2.09863,-1.919682 1.78122,2.614566 10.21085,11.933088 3.03097,3.350586 9.45781,10.454648 14.28186,15.786806 22.29298,24.641037 21.6033,23.808119 20.53268,24.797478 -0.48809,0.451048 -3.87114,1.885973 -7.51789,3.188726 -12.05999,4.308263 -32.44978,11.825125 -36.94113,13.618645 -2.43117,0.970832 -6.6042,2.531352 -9.2734,3.467831 -2.6692,0.936473 -4.98585,2.048622 -5.1481,2.471443 -0.16225,0.422815 0.66277,3.517717 1.83338,6.877554 1.1706,3.359836 1.98273,6.488333 1.80473,6.952212 -0.17801,0.463873 -2.65533,1.908366 -5.50516,3.209975 -2.84983,1.301604 -8.02313,3.751722 -11.49623,5.444705 -3.4731,1.692977 -9.01426,4.333712 -12.31371,5.868291 -14.95643,6.956279 -17.11452,8.06145 -17.45027,8.936399 -0.36311,0.946267 2.89829,5.434765 10.15569,13.976745 2.10182,2.47384 5.71093,6.87836 8.02025,9.78782 8.07778,10.17702 10.81574,13.51856 13.13037,16.02495 1.28295,1.38924 2.7395,3.13815 3.23678,3.88646 0.49728,0.74831 3.81265,4.95061 7.36748,9.33844 3.55484,4.38784 6.75299,8.5191 7.10701,9.180583 0.50935,0.95173 0.24774,1.78935 -1.2537,4.01405 -1.04354,1.54624 -1.89736,3.02058 -1.89736,3.27631 0,0.25572 -1.42081,2.94778 -3.15736,5.98234 -1.73655,3.03457 -3.15736,5.98096 -3.15736,6.54753 0,0.94549 5.05908,1.03014 61.56855,1.03014 h 61.56854 V 2.934537 -115.4665 h -10.10356 c -7.43734,0 -10.10355,0.19996 -10.10355,0.75776 0,0.58938 -0.1684,0.58938 -0.75777,0 -0.41677,-0.41677 -2.27274,-0.75776 -4.12438,-0.75776 -2.65157,0 -3.44121,0.23471 -3.71776,1.10507 z m -61.17778,46.255343 c 0.21465,0.34731 1.01287,0.611499 1.77382,0.587086 1.3339,-0.04281 1.33823,-0.06385 0.1206,-0.587086 -1.73811,-0.746893 -2.35602,-0.746893 -1.89442,0 z m -351.354004,3.120092 c -0.62803,0.38814 -0.64549,0.622808 -0.0727,0.976818 0.41465,0.256264 1.03807,0.181781 1.38538,-0.165528 0.82295,-0.822947 -0.23543,-1.477064 -1.31268,-0.81129 z m -10.79533,4.457575 c 0,0.347309 0.28416,0.631472 0.63147,0.631472 0.34731,0 0.63147,-0.284163 0.63147,-0.631472 0,-0.34731 -0.28416,-0.631473 -0.63147,-0.631473 -0.34731,0 -0.63147,0.284163 -0.63147,0.631473 z m 368.211274,0.78934 c 0.0346,0.434137 0.29045,1.499746 0.56852,2.368021 0.45122,1.408909 0.51235,1.32402 0.56853,-0.789341 0.0346,-1.302411 -0.22122,-2.36802 -0.56853,-2.36802 -0.34731,0 -0.60314,0.355203 -0.56852,0.78934 z m 1.88132,5.262266 c 0.0303,0.735634 0.17993,0.885261 0.38151,0.381517 0.18242,-0.455841 0.15999,-1.000492 -0.0498,-1.210324 -0.20983,-0.209832 -0.35908,0.163134 -0.33166,0.828807 z m -376.407314,15.102713 c 0,0.520964 0.28416,0.947208 0.63147,0.947208 0.34731,0 0.63147,-0.426244 0.63147,-0.947208 0,-0.520965 -0.28416,-0.947209 -0.63147,-0.947209 -0.34731,0 -0.63147,0.426244 -0.63147,0.947209 z m 397.487934,2.525889 c -0.26765,0.694619 -0.62492,1.547106 -0.79395,1.894416 -0.16902,0.34731 0.19194,0.162099 0.80214,-0.411587 0.6102,-0.57368 0.96748,-1.426167 0.79395,-1.894417 -0.22234,-0.59993 -0.45923,-0.478378 -0.80214,0.411588 z M 18.091942,120.50989 c 0.24049,0.24049 1.069297,0.52545 1.841796,0.63324 1.114612,0.15553 1.209017,0.0673 0.457331,-0.42759 -1.072568,-0.70609 -2.96922,-0.87575 -2.299127,-0.20565 z m 200.897158,0.19422 c -0.49393,0.79919 0.34202,0.79919 1.57868,0 0.81629,-0.52753 0.79962,-0.61347 -0.1206,-0.6218 -0.5873,-0.005 -1.24343,0.27449 -1.45808,0.6218 z"
           style="fill:#b215fa;stroke-width:0.63147223" />
        <path
           id="path4583"
           d="M -129.26785,2.934537 V 121.33558 h 56.516766 c 41.98963,0 56.516763,-0.18563 56.516763,-0.72219 0,-0.3972 -1.382432,-3.0257 -3.072075,-5.84111 -1.689643,-2.81542 -3.653566,-6.25559 -4.364269,-7.64482 -0.710703,-1.38924 -2.176388,-3.50788 -3.257077,-4.70808 -1.080689,-1.2002 -5.272269,-8.588423 -9.314613,-16.418283 -4.042351,-7.82985 -9.043529,-17.50396 -11.113729,-21.49802 -2.0702,-3.99406 -6.17642,-11.95061 -9.12495,-17.68122 -2.94852,-5.730612 -5.865,-11.27178 -6.48106,-12.313709 -0.61606,-1.041929 -1.32846,-2.604823 -1.58309,-3.473098 -0.25465,-0.868274 -0.97,-2.71533 -1.58969,-4.104569 -0.61968,-1.389239 -4.57846,-11.192845 -8.79729,-21.785791 -4.21883,-10.592947 -8.46781,-21.106959 -9.44218,-23.364472 -1.91513,-4.437122 -2.00654,-4.509406 -10.47827,-8.285661 -2.43117,-1.083688 -6.458276,-2.930612 -8.949136,-4.104272 -2.49086,-1.173661 -4.78089,-2.133928 -5.08896,-2.133928 -0.30806,0 -1.08482,-0.38367 -1.72612,-0.852601 -1.09264,-0.798964 -0.91126,-1.166437 2.88324,-5.841118 2.22708,-2.743684 4.84417,-6.055471 5.81577,-7.359531 0.97159,-1.304053 3.451076,-4.287759 5.509966,-6.630458 2.05889,-2.342693 3.74838,-4.583061 3.75441,-4.978597 0.0107,-0.699728 -8.087566,-18.08208 -16.706746,-35.859924 -2.34505,-4.836868 -5.49773,-11.514688 -7.00598,-14.839598 l -2.74226,-6.0453 -3.81676,-0.0923 c -2.40303,-0.0581 -3.81677,0.16407 -3.81677,0.5999 0,0.46559 -0.2481,0.44414 -0.75777,-0.0655 -0.41677,-0.41677 -0.98509,-0.75776 -1.26294,-0.75776 -0.27785,0 -0.50518,53.280463 -0.50518,118.401035 z M 347.10293,-114.36143 c -0.81919,2.57819 -7.22499,17.423212 -12.79669,29.655479 -1.77377,3.894195 -4.04806,9.151201 -5.05399,11.682236 -1.00592,2.531042 -2.86501,6.813926 -4.1313,9.517524 -1.26629,2.703598 -2.09833,5.26106 -1.84897,5.68325 0.24937,0.42219 2.04188,2.756755 3.98337,5.187923 1.9415,2.431168 4.36212,5.699037 5.37917,7.261931 1.01705,1.562893 3.21354,4.453123 4.88108,6.422729 1.66755,1.969612 3.0319,3.88339 3.0319,4.252839 0,0.369449 -5.19651,3.200844 -11.5478,6.291989 -8.91678,4.339755 -11.71714,5.991926 -12.29107,7.251562 -0.4088,0.897214 -2.72536,6.968333 -5.14792,13.491372 -2.42256,6.523045 -6.00691,16.122515 -7.96523,21.332161 -1.95832,5.209645 -4.3627,11.745383 -5.34307,14.523861 -0.98037,2.778477 -3.19584,7.893402 -4.92327,11.366499 -1.72744,3.473098 -4.06234,8.303862 -5.18869,10.735032 -1.12634,2.43116 -3.74774,7.97233 -5.82533,12.3137 -2.07759,4.34138 -4.72423,9.88254 -5.88144,12.31371 -1.1572,2.43117 -4.27124,8.96691 -6.92007,14.52386 -2.64884,5.55696 -5.60782,11.098133 -6.5755,12.313713 -0.96769,1.21559 -3.04411,4.62672 -4.61427,7.58029 -1.57016,2.95358 -3.46041,6.36353 -4.20054,7.57767 -0.74015,1.21414 -1.34678,2.70481 -1.34808,3.3126 -0.002,1.04492 3.34956,1.10508 61.56619,1.10508 h 61.56854 V 2.934537 -115.4665 h -10.10356 c -7.43734,0 -10.10355,0.19996 -10.10355,0.75776 0,0.58938 -0.1684,0.58938 -0.75777,0 -0.41677,-0.41677 -2.27274,-0.75776 -4.12438,-0.75776 -2.65157,0 -3.44121,0.23471 -3.71776,1.10507 z M 18.091942,120.50989 c 0.24049,0.24049 1.069297,0.52545 1.841796,0.63324 1.114612,0.15553 1.209017,0.0673 0.457331,-0.42759 -1.072568,-0.70609 -2.96922,-0.87575 -2.299127,-0.20565 z m 200.897158,0.19422 c -0.49393,0.79919 0.34202,0.79919 1.57868,0 0.81629,-0.52753 0.79962,-0.61347 -0.1206,-0.6218 -0.5873,-0.005 -1.24343,0.27449 -1.45808,0.6218 z"
           style="fill:#6807da;stroke-width:0.63147223" />
        <path
           id="path4581"
           d="m 372.66481,-74.262941 c -1.14858,1.476066 -2.40582,2.885607 -2.79386,3.132317 -0.38805,0.246703 -2.02645,2.417332 -3.64089,4.82362 -1.61445,2.406288 -3.36725,4.540803 -3.89513,4.743367 -0.52787,0.202564 -1.30823,1.157722 -1.73413,2.122574 -0.4259,0.964845 -2.48362,4.134735 -4.57272,7.044192 -4.20136,5.851216 -6.38971,8.959922 -10.01736,14.230391 -1.33661,1.941903 -2.68638,3.689061 -2.9995,3.882581 -1.11013,0.686101 -0.53385,2.534692 1.95659,6.276298 1.38703,2.083858 2.52278,3.989452 2.52388,4.234646 10e-4,0.245201 0.89419,1.950176 1.98464,3.788833 2.70155,4.55522 4.14235,7.048556 6.85798,11.867895 1.27208,2.257513 2.95665,5.24122 3.74348,6.630459 11.20959,19.791671 14.01548,25.092672 13.70719,25.896069 -0.26996,0.703536 -1.42096,0.9415 -4.5539,0.9415 -2.30594,0 -15.74153,0.563058 -29.85688,1.251237 -40.57432,1.978162 -39.96381,1.934369 -39.74842,2.851513 0.10547,0.449116 6.44334,6.410795 14.08415,13.248186 7.64082,6.83739 16.30777,14.65788 19.25991,17.37888 2.95213,2.72099 8.63538,7.82836 12.62944,11.3497 3.99406,3.52135 7.37119,6.71453 7.50473,7.09596 0.1684,0.48101 -0.83557,0.56677 -3.27652,0.27988 -1.93562,-0.22749 -7.72813,-0.56975 -12.87224,-0.76058 -5.14411,-0.19082 -13.31847,-0.61009 -18.16525,-0.93171 -6.57765,-0.43647 -8.92775,-0.398 -9.26749,0.15171 -0.25034,0.40506 -0.62172,3.02702 -0.8253,5.82659 -0.31433,4.32279 -1.61774,34.351563 -1.61774,37.270783 0,0.86265 3.86336,0.97163 34.44488,0.97163 h 34.44488 l -0.0991,-89.466247 -0.0991,-89.466245 -1.35131,-1.167415 c -1.29486,-1.118647 -1.29901,-1.160097 -0.0992,-0.99215 0.91457,0.128018 1.27451,-0.211916 1.33534,-1.261107 0.0458,-0.790003 -0.16244,-1.588216 -0.46273,-1.773812 -0.77805,-0.48086 -0.67823,-6.421378 0.11613,-6.912322 0.45264,-0.279749 0.42818,-0.691121 -0.0773,-1.300214 -0.53163,-0.640578 -0.54025,-0.890988 -0.0306,-0.890988 0.40594,0 0.70879,-1.079249 0.70879,-2.525889 0,-1.389239 -0.26028,-2.525889 -0.57841,-2.525889 -0.31812,0 -1.51815,1.207691 -2.66673,2.683757 z m -10.64725,20.019728 c 0,0.762496 3.55014,4.44982 4.28427,4.44982 0.34112,0 0.76883,-0.568325 0.95048,-1.262944 0.33512,-1.281523 1.71145,-1.78934 1.71145,-0.631472 0,0.347309 0.69363,0.631472 1.54141,0.631472 2.13992,0 2.60604,1.102702 1.1542,2.730505 -0.90597,1.015773 -1.19923,2.197346 -1.12467,4.531425 0.0924,2.8928 -0.0306,3.18382 -1.46869,3.473097 -1.06109,0.213457 -1.79215,0.965888 -2.25671,2.3227 -0.37794,1.103833 -0.90167,2.218185 -1.16385,2.476344 -0.26217,0.258158 -2.53547,0.539183 -5.05178,0.624501 -2.5163,0.08532 -5.41978,0.249696 -6.45217,0.365281 -1.47088,0.164682 -1.92652,-0.06315 -2.10556,-1.052784 -0.12566,-0.694619 -0.69279,-1.623799 -1.26028,-2.064845 -0.93481,-0.726515 -0.87963,-0.943009 0.58693,-2.302884 0.89031,-0.825536 2.16004,-1.603763 2.82163,-1.729388 0.79997,-0.1519 1.27339,-0.861132 1.41336,-2.117421 0.11577,-1.038961 0.96727,-2.883586 1.89222,-4.09917 0.92497,-1.215584 1.61169,-2.423275 1.52607,-2.683757 -0.0856,-0.260482 0.14526,-0.473604 0.51307,-0.473604 0.36781,0 0.50525,-0.26453 0.30544,-0.587838 -0.19983,-0.323314 -0.0745,-0.766329 0.27846,-0.984477 0.35298,-0.218149 0.64178,-0.96496 0.64178,-1.659579 0,-0.694619 0.28416,-1.087326 0.63147,-0.872676 0.34731,0.21465 0.63147,0.627614 0.63147,0.917694 z m -491.27502,0.781586 c -0.006,0.587294 0.27841,1.246298 0.63138,1.464447 0.35298,0.218148 0.45321,0.701748 0.22274,1.074658 -0.70131,1.134743 -0.9103,17.01877 -0.2183,16.591086 0.33921,-0.209636 0.61673,-0.08023 0.61673,0.287579 0,0.367807 -0.28416,0.668742 -0.63147,0.668742 -0.40188,0 -0.61797,4.763908 -0.59433,13.103048 0.0294,10.38511 0.19316,12.859155 0.78934,11.927254 0.41371,-0.646685 1.9121,-3.062066 3.32975,-5.367514 1.41766,-2.305448 4.65881,-7.570683 7.20256,-11.700524 3.10405,-5.039501 4.43687,-7.76061 4.0529,-8.274496 -0.72719,-0.973256 -3.94775,-5.123873 -8.78123,-11.317118 -2.08386,-2.670099 -4.42353,-5.905529 -5.19926,-7.189848 -0.83758,-1.386701 -1.41464,-1.901426 -1.42081,-1.267314 z m 7.3452,13.459501 c 0.84656,0.846558 0.79341,0.926661 -0.48537,0.731504 -0.78981,-0.120535 -1.54574,-0.548333 -1.67985,-0.950656 -0.34829,-1.044859 1.04191,-0.904155 2.16522,0.219152 z m -7.35559,113.574733 v 47.762973 h 26.931 26.930996 l -0.40893,-10.57716 c -0.22491,-5.81744 -0.59427,-15.483663 -0.82079,-21.480493 -0.23677,-6.26814 -0.70665,-11.29706 -1.10531,-11.8295 -0.59514,-0.79486 -2.24223,-0.83665 -11.61793,-0.29479 -18.725346,1.08221 -35.790756,1.76509 -36.119046,1.44532 -0.17302,-0.16853 0.53739,-0.92019 1.57868,-1.67035 1.04129,-0.75015 3.8824,-3.07167 6.31357,-5.15893 2.43116,-2.08725 5.55695,-4.64092 6.94619,-5.67481 1.38924,-1.0339 6.22736,-5.01184 10.751376,-8.83987 9.98105,-8.44553 13.17275,-11.089 16.17827,-13.399412 1.26622,-0.973371 4.81885,-3.900989 7.89474,-6.505812 3.07588,-2.604823 6.41668,-5.332436 7.424,-6.06137 3.67666,-2.660537 4.07498,-2.603888 -28.356,-4.032758 -7.640806,-0.336644 -18.083786,-0.799715 -23.206596,-1.029047 l -9.31422,-0.416961 z"
           style="fill:#4501be;stroke-width:0.63147223" />
        <path
           id="path4579"
           d="m 374.75362,24.907598 c -0.37372,0.450309 -5.10936,12.848205 -10.52363,27.550879 l -9.84414,26.73214 -6.7613,8.22863 c -6.43788,7.835 -8.39753,10.2336 -16.64458,20.372723 -1.9627,2.413 -5.01745,6.16471 -6.78832,8.33714 -1.77089,2.17244 -3.21979,4.23262 -3.21979,4.57818 0,0.40711 9.67002,0.62829 27.46905,0.62829 h 27.46904 V 72.712217 c 0,-26.74285 -0.10729,-48.623361 -0.23842,-48.623361 -0.13112,0 -0.54418,0.368433 -0.91791,0.818742 z m -504.00139,72.905639 -0.0201,23.522343 h 19.57564 c 12.270456,0 19.575636,-0.22934 19.575636,-0.61457 0,-0.33801 -1.20769,-1.94332 -2.68376,-3.56736 -7.680456,-8.45042 -9.284246,-10.23202 -11.299346,-12.55208 -1.20662,-1.38924 -6.93684,-7.851343 -12.73381,-14.360233 -5.79697,-6.50888 -10.53994,-12.20886 -10.53994,-12.66662 0,-0.45775 -0.41721,-1.38388 -0.92713,-2.05805 -0.82064,-1.08498 -0.92943,1.47589 -0.94721,22.29657 z"
           style="fill:#25009a;stroke-width:0.63147223" />
      </g>
      <path
         id="path4842"
         d=""
         style="fill:#ff0000;fill-opacity:1;stroke:#002eff;stroke-width:0.50507629;stroke-opacity:0"
         transform="scale(0.26458333)" />
      <path
         id="path4876"
         d=""
         style="fill:#ff0000;fill-opacity:1;stroke:#002eff;stroke-width:0.50507629;stroke-opacity:0"
         transform="scale(0.26458333)" />
      <g
         transform="translate(49.780239,-14.917386)"
         aria-label=".0"
         style="font-style:normal;font-variant:normal;font-weight:normal;font-stretch:normal;font-size:198.78555298px;line-height:1.25;font-family:PWPerspective;-inkscape-font-specification:PWPerspective;letter-spacing:0px;word-spacing:0px;fill:#ffffff;fill-opacity:1;stroke:#ffffff;stroke-width:1.03534138"
         id="text4487-0">
        <path
           id="path4599"
           style="font-style:normal;font-variant:normal;font-weight:normal;font-stretch:normal;font-size:198.78555298px;font-family:PWPerspective;-inkscape-font-specification:PWPerspective;fill:#ffffff;stroke:#ffffff;stroke-width:1.03534138;filter:url(#filter4922)"
           d="m -282.6182,148.96076 q 5.56599,-1.39149 12.72227,0.79515 14.31256,4.37328 23.05913,14.90891 8.94535,10.53564 11.72835,26.63727 1.78907,9.93927 1.78907,21.86641 0,11.72835 -1.98786,32.60083 -1.59028,16.69799 -6.16235,26.23969 -4.37328,9.54171 -13.91499,16.69799 -8.74656,6.55992 -16.30042,8.34899 -7.35506,1.78907 -25.84212,1.78907 -32.9984,-0.19878 -48.50367,-23.85427 -16.89677,-25.84212 -8.349,-67.98465 2.18665,-10.93321 5.36721,-16.69799 2.98179,-5.96357 10.53564,-13.51742 11.52956,-11.52956 23.65548,-17.29434 4.1745,-1.78907 8.94535,-4.1745 7.35506,-3.77692 15.70406,-4.96964 4.37328,-0.59635 7.55385,-1.3915 z m 10.9332,3.57814 q -1.78907,-0.59635 -4.17449,-0.79514 -2.38543,-0.19878 -4.1745,0 -1.59028,0 -1.59028,0.39757 0,0.59636 -1.59029,0.59636 -1.3915,0 -4.17449,1.3915 -2.783,1.19271 -3.97572,0.39757 -1.19271,-0.59636 -5.56599,0.59636 -4.37328,1.3915 -6.55992,2.78299 -1.98786,1.3915 -4.57207,2.58422 -2.783,1.59028 -6.75871,5.36721 -3.77693,3.77692 -6.55992,7.75263 -8.94535,12.92106 -12.32471,32.00448 -1.19271,6.75871 -1.19271,17.69191 0.19878,10.73442 1.59028,17.8907 4.1745,22.46277 15.70406,36.57654 13.91499,17.49313 34.78747,17.49313 16.89678,-0.19878 30.41419,-13.7162 7.35507,-7.55385 10.13807,-15.90285 2.78299,-8.34899 4.57206,-28.42633 2.58422,-29.61905 -0.39757,-44.32918 -3.77692,-20.87248 -16.69798,-31.40812 -2.58422,-2.18664 -7.95143,-4.96963 -5.36721,-2.98179 -8.94535,-3.97572 z m -48.1061,13.91499 q 0.39757,-0.59635 0.19879,-0.59635 -0.39757,0 -2.38543,1.3915 -1.98786,1.19271 -1.98786,1.39149 0,0.19879 0.99393,-0.19878 0.99393,-0.39757 1.98786,-0.99393 0.99393,-0.59636 1.19271,-0.99393 z m -3.97571,4.37329 q 1.59028,-1.19272 1.19271,-1.19272 -0.39757,0 -2.18664,0.99393 -1.59028,0.99393 -1.59028,1.19271 0,1.19272 2.58421,-0.99392 z m -4.77085,8.54777 q 0.79514,-1.59028 1.3915,-2.78299 0.59635,-1.19272 0.79514,-1.98786 l 0.19878,-0.59636 q -0.79514,0 -5.56599,3.97572 -4.77086,3.77692 -8.94535,7.75263 -4.37328,3.77693 -3.97571,4.1745 0.19878,0.39757 1.98785,-0.59636 1.78907,-1.19271 3.37936,-2.98178 1.78907,-1.98786 3.97571,-3.18057 2.18664,-1.3915 2.58421,-0.99393 0.39757,0.39757 0,0.59636 -6.16235,4.37328 -10.13806,9.14413 l -2.38543,2.783 q 0.19879,0 1.3915,-0.59636 2.18664,-1.19271 5.96357,-4.57206 4.17449,-3.37936 4.57206,-2.98179 0.39757,0.39757 0,0.59636 -0.19878,0.19879 -7.75263,6.36114 -7.55385,6.16235 -7.95143,6.55992 -0.79514,0.79514 -0.19878,0.59636 2.38543,-0.59636 8.94535,-5.36721 5.56599,-3.97571 5.76478,-3.18057 0.19879,0.79514 -7.35507,8.15021 l -6.7587,6.95749 q 1.39149,-0.79514 5.16842,-3.18057 3.57814,-2.58421 4.57207,-3.57814 1.3915,-1.19271 1.78907,-0.99393 0.99393,1.19272 -5.76478,7.15628 -5.96357,5.16843 -5.16843,5.76479 0.19879,0 0.59636,-0.39758 0.79514,-0.19878 5.56599,-3.37935 4.57207,-3.18057 4.77086,-3.37935 0.19878,0 1.19271,-4.77086 2.38543,-11.33077 7.35507,-21.07127 z m -15.30649,11.92714 q 0,-0.59636 -0.79514,-0.59636 -0.99393,0 -2.18664,2.58421 l -1.3915,2.783 2.18664,-2.18664 q 2.18664,-2.18664 2.18664,-2.58421 z m 0,9.34292 6.36114,-6.16235 q -0.59636,0.19878 -4.77086,3.18056 -4.17449,2.98179 -5.96356,3.37936 -1.59029,0.39757 -1.98786,1.3915 -1.19271,4.37328 -0.59636,4.37328 0.59636,0 6.9575,-6.16235 z m -2.783,-3.57814 q 0.19879,-0.19879 0,-0.39757 -0.39757,-0.19879 -0.79514,-0.19879 -1.19271,0 -1.3915,1.19271 -0.19879,0.59636 0,0.79515 0,0 0.79514,-0.39757 0.99393,-0.59636 1.3915,-0.99393 z m 0.99393,10.9332 5.56599,-5.36721 q -0.19878,0 -4.37328,2.783 -3.97571,2.783 -5.56599,3.18057 -1.19272,0.19879 -1.59029,1.19271 -0.39757,0.99393 -0.99393,5.96357 -2.38542,16.10163 -1.39149,21.27005 l 0.39757,2.18665 6.16235,-6.16236 q 6.16235,-5.96356 6.16235,-6.55992 0,-0.59636 -1.98785,1.3915 -4.1745,3.77692 -6.75871,3.77692 -1.78907,0 -1.78907,-0.39757 0,-0.39757 4.57206,-5.16842 3.77693,-3.77693 2.38543,-2.98178 -0.19878,0.19878 -0.59636,0.39757 -0.99392,0.99392 -2.78299,1.78907 -1.78907,0.59635 -2.783,0.79514 -1.19271,0.19878 -1.3915,-0.39757 0,-0.59636 3.77693,-4.37328 l 3.97571,-3.97572 -3.18057,1.78907 q -4.57207,2.98179 -4.57207,1.59029 0,-0.59636 5.16842,-5.566 v -0.19878 q 4.1745,-4.37328 3.97572,-4.37328 -0.19879,0 -1.98786,1.19271 -3.18057,1.98785 -4.57207,1.98785 -1.59028,-0.19878 1.19272,-2.78299 0.99392,-0.99393 2.98178,-2.98179 z m 8.34899,0 q 0.59636,-1.59028 -0.39757,-0.79514 -1.3915,0.99393 -6.75871,6.16235 -5.56599,5.76478 -5.16842,5.76478 0.39757,0 5.36721,-3.37935 4.77085,-3.37935 4.77085,-2.58421 0,0.99393 -5.96357,6.36114 -2.38542,2.38542 -3.97571,3.97571 l -1.59028,1.78907 q 0.39757,0.39757 3.18057,-1.3915 2.783,-1.78907 4.37328,-3.37936 3.18057,-2.98178 3.37935,-1.19271 0,0.59636 -5.36721,6.16235 -5.36721,5.566 -4.96963,5.566 1.98785,0 6.55992,-3.97571 5.16842,-4.1745 5.16842,-2.58422 0,0.99393 -6.36113,7.75264 -5.16843,5.16843 -4.37329,4.96964 0.39757,-0.19879 1.78907,-0.99393 1.19272,-0.99393 2.58422,-1.98785 1.19271,-0.99393 2.38542,-1.78907 l 4.37328,-3.37936 0.39758,-9.93928 q 0.19878,-9.93927 0.59635,-11.13199 z m -0.39757,23.85427 q 0.19879,-1.3915 -0.39757,-1.3915 -0.39757,0 -3.77693,3.57814 -7.35506,7.55385 -6.36113,7.55385 0.59635,0 5.76478,-4.37328 4.77085,-3.97571 4.77085,-5.36721 z m -8.74656,5.566 q 0.79514,-0.79515 1.3915,-1.59029 0.59635,-0.79514 0.99392,-1.19271 0.19879,-0.39757 0,-0.39757 -0.19878,0 -0.59635,0.59635 -0.59636,0.79515 -4.37329,3.18057 -3.77692,2.38543 -4.17449,1.98786 -0.59636,-0.39757 -0.39757,2.18664 0.19878,1.98785 0.79514,5.76478 1.19271,6.55992 1.78907,7.15628 0.59636,0.39757 4.1745,-2.58421 4.17449,-3.37936 5.16842,-4.96964 0.99393,-1.3915 0.59636,-1.19271 -0.39757,0 -3.18057,1.98785 -3.97571,2.58421 -4.57207,0.59636 -0.79514,-2.18664 4.37328,-7.55385 3.37936,-3.37936 2.783,-3.37936 -0.39757,0 -2.98178,1.98786 -4.1745,3.37935 -4.77086,1.3915 0,-0.59636 2.98179,-3.97571 z m 9.74049,3.18056 q -0.99393,-5.76478 -1.3915,-5.36721 0,0.59636 -4.96964,5.96357 -4.96964,5.566 -4.96964,6.75871 0,1.19271 0.19879,1.19271 1.3915,0 5.76478,-3.57814 2.58421,-2.18664 2.98178,-1.78907 0.39757,0.19879 -0.79514,2.58422 -1.19271,2.58421 -9.54171,9.5417 l -1.3915,1.3915 2.38543,-0.99393 q 1.98786,-0.99392 2.98178,-1.3915 0.79515,-0.59635 4.96964,-3.97571 4.1745,-3.18057 4.37329,-4.17449 0.39757,-0.79515 -0.59636,-6.16236 z m 0.39757,27.23362 5.566,-5.56599 -2.38543,-7.35507 -2.38543,-7.15628 -1.19271,2.58422 q -1.59029,2.98178 -5.566,7.75263 -3.97571,4.96964 -4.77085,6.16236 l -0.39757,0.99392 q 0.19878,0 0.99393,-0.59635 1.19271,-0.99393 5.36721,-4.96964 4.57206,-4.37328 4.77085,-3.37936 0.19879,0.99393 -4.77085,6.9575 -2.783,3.18057 -2.18664,3.18057 0.79514,0 5.56599,-4.1745 3.77693,-2.783 3.77693,-1.78907 0,1.59028 -2.783,4.96964 -6.75871,7.35506 -5.16843,6.95749 1.19272,-0.19878 5.566,-4.57207 z m -2.18664,-17.09555 q -0.59636,0.19878 -3.77693,2.783 -3.77692,3.18056 -5.96356,3.57814 l -2.18664,0.59635 0.99392,3.18057 q 0.99393,3.18057 1.19272,2.98178 0.39757,0 4.77085,-5.36721 4.1745,-5.36721 4.96964,-6.55992 0.59636,-1.19271 0,-1.19271 z m -3.37936,11.92713 2.783,-3.57814 q -0.39757,0.19879 -1.98785,1.78907 -1.78907,2.18664 -3.97571,3.77693 l -2.38543,1.59028 2.783,4.57207 q 2.58421,4.37328 4.96964,7.35506 l 2.38542,2.783 3.77693,-4.57207 q 4.37328,-5.56599 4.17449,-5.56599 -0.19878,0 -2.78299,1.98785 -5.76478,4.77086 -6.55993,2.58422 -0.39757,-1.3915 2.783,-5.16843 4.37328,-4.96964 3.97571,-4.96964 0,-0.19878 -1.3915,0.99393 -2.38542,1.98786 -4.77085,4.77085 -4.37328,4.96964 -4.37328,1.59029 0,-1.19272 1.59028,-3.57814 1.3915,-2.58421 2.98179,-3.77693 1.19271,-0.99392 2.38542,-2.78299 0.99393,-1.3915 -0.79514,0 -0.79514,0.59635 -1.98786,1.59028 -6.7587,5.76478 -6.7587,2.98178 0,-0.79514 3.18056,-4.37328 z m 11.72835,7.35507 q 1.3915,-1.59029 1.59029,-2.18665 0.19878,-0.59635 -0.39757,-1.98785 l -0.79515,-1.98786 -1.98785,2.783 q -1.59029,1.98786 -4.37328,5.36721 -2.18665,2.58421 -1.78907,2.98178 0.39757,0.39758 3.18056,-1.39149 2.783,-1.78907 4.57207,-3.57814 z m 4.96964,2.98178 -1.98785,-3.37936 q -0.19879,0 -2.98179,3.97572 -0.79514,0.79514 -2.58421,2.98178 -1.59028,2.18664 -1.98786,2.783 -1.98785,2.18664 -1.19271,1.98785 0.79514,-0.19878 3.97571,-3.77692 3.18057,-3.57814 4.57207,-3.57814 2.38543,0 -0.59636,3.97571 -1.78907,2.58421 -1.78907,2.98178 0,0.19879 2.38543,-1.3915 2.783,-1.98785 3.18057,-1.78907 0.39757,0.59636 -1.19271,2.98179 -1.59029,2.58421 -1.3915,2.98178 0.19878,0.19878 2.78299,-1.3915 3.77693,-2.58421 3.77693,-0.99393 0,0.59636 -2.38543,4.1745 -0.79514,1.19271 -1.3915,2.18664 -0.39757,0.79514 -0.59635,1.3915 -0.19879,0.39757 0,0.39757 0.59635,0 3.77692,-2.58421 3.37936,-2.58421 3.18057,-3.18057 0,-0.59636 -2.98178,-3.97571 -3.18057,-4.1745 -4.57207,-6.75871 z m -1.78907,1.98785 q 0,-1.39149 -4.77085,3.77693 l -3.77693,3.97571 2.38543,1.78907 2.18664,1.78907 1.59028,-1.59028 q 1.3915,-1.59029 2.58422,-3.57814 l 1.19271,-1.59029 -3.18057,1.98786 q -3.18057,1.98785 -3.57814,1.59028 -0.39757,-0.39757 2.38543,-4.17449 2.98178,-3.57814 2.98178,-3.97572 z m 4.57207,8.74657 q 0.99393,-1.78907 0.79514,-1.78907 -0.19878,0 -4.1745,2.58421 l -3.97571,2.58421 1.78907,1.19272 1.78907,1.19271 1.3915,-1.98786 z m 6.55992,1.78907 q 0,-0.99393 -4.37328,2.18664 l -3.77693,2.783 1.78907,0.79514 q 1.59029,0.79514 4.1745,1.59028 1.98786,0.59636 2.38543,0.39758 0.59635,-0.19879 1.59028,-1.78907 1.19271,-1.78907 0.59636,-1.98786 -0.59636,-0.19879 -3.18057,0.99393 -2.783,0.99393 -2.98178,0.59635 -0.19879,-0.39757 1.98785,-2.78299 1.78907,-1.98786 1.78907,-2.783 z m 3.97571,2.98178 q -2.58421,-2.18664 -2.98178,-2.18664 -0.19879,0 -1.19271,1.78907 -0.79515,1.3915 -0.39757,1.19271 3.57813,-1.39149 4.17449,-0.19878 0.19879,0.99393 -0.59636,2.58421 -1.19271,1.78907 -0.79514,1.78907 0.39757,0 2.58421,-0.79514 2.98179,-0.99393 2.783,-1.78907 0,-0.19879 -0.59635,-0.19879 -0.59636,0 -2.98179,-2.18664 z m 7.35507,4.96964 q -2.38543,-1.3915 -2.783,-1.3915 -0.39757,0 -0.79514,0.79514 -0.39757,1.3915 0,1.78907 0.59635,0.39758 2.98178,0.39758 h 3.18057 z m -4.77086,0 v -0.79514 q 0,0 -1.59028,0.79514 -1.3915,0.79514 -0.79514,0.99393 h 0.59635 q 1.19272,0 1.78907,-0.99393 z m 22.46277,-116.48833 q 0.39757,-0.79514 4.57207,-0.39757 4.1745,0.39757 6.95749,1.3915 5.76479,1.98785 8.54778,7.95142 2.98179,5.76478 4.37329,18.28827 1.59028,15.30649 -0.59636,32.00447 -2.18664,16.69799 -6.75871,24.64941 -2.38543,4.37328 -4.77085,5.96357 -2.18664,1.59028 -6.55993,2.18664 -3.57814,0.39757 -4.57206,0.79514 -0.59636,0.39757 -0.79515,0.39757 0,-0.19878 0.19879,-0.79514 0.39757,-0.99393 -0.79514,-0.99393 -1.19272,0 -3.57814,-1.59028 -2.18664,-1.59029 -3.37936,-1.3915 -0.39757,0 -0.79514,-0.19879 -0.39757,-0.39757 -0.39757,-1.19271 -0.19879,-1.3915 -1.98786,-3.97571 -7.55385,-10.33685 -8.54778,-32.9984 -0.59635,-17.8907 3.57814,-31.20934 4.37329,-13.31863 12.12592,-16.89677 2.783,-1.3915 3.18057,-1.98785 z m 8.94535,3.77692 q -1.59028,-0.99392 -5.76478,-0.19878 -3.97571,0.59635 -6.36114,2.18664 -2.18664,1.59028 -1.19271,1.3915 0.79514,0 2.783,-0.99393 2.58421,-1.19271 6.16235,-1.59028 h 0.19879 0.19878 0.19879 0.39757 l 3.97571,-0.39758 -0.39757,-0.19878 z m 7.55385,4.77086 q -1.3915,-1.98786 -3.18057,-2.98179 -1.78907,-1.19271 -2.78299,0 -0.99393,0.99393 -6.16236,3.97571 l -3.97571,2.783 1.3915,-0.19878 q 2.58421,-0.39758 6.75871,-2.18665 4.1745,-1.78907 4.37328,-1.59028 0.39757,0.39757 -4.37328,2.783 -3.37935,1.98785 -3.57814,2.38542 1.3915,0.19879 5.566,-1.98785 3.97571,-2.18664 4.96964,-1.98786 0.79514,0 -1.19272,1.3915 -0.79514,0.39757 -1.78907,0.79514 -3.18057,1.78907 -5.16842,2.98179 -0.79514,0.59635 -0.79514,0.79514 0,0 1.19271,0 1.78907,0 4.96964,-1.19271 3.37935,-1.3915 3.97571,-0.99393 0.59636,0.19878 -0.99393,1.19271 -0.79514,0.39757 -1.98785,0.99393 -4.1745,1.78907 -4.1745,2.58421 0,1.78907 6.16235,-0.99393 l 3.57814,-1.59028 -0.79514,-2.58421 q -0.79514,-2.38543 -1.98786,-4.37328 z m -8.1502,-2.58422 q 0,-0.79514 -2.58422,0.59636 -1.3915,0.79514 -5.16842,1.98786 -3.57814,0.99392 -4.96964,0.19878 -1.19271,-0.79514 -2.18664,0.19879 -0.59636,0.59635 -0.39757,0.79514 0.39757,0.19878 1.98785,0.59636 2.38543,0.39757 2.98179,0.99392 0.39757,0.19879 5.36721,-2.18664 4.96964,-2.58421 4.96964,-3.18057 z m -8.15021,1.59029 2.38542,-1.19272 q -2.78299,0.19879 -5.96356,2.18665 0.19878,0.19878 3.57814,-0.99393 z m -1.98786,7.75263 q -6.55992,-4.77085 -9.14413,1.59029 -4.57207,10.73442 -4.96964,27.03483 -0.19879,16.10163 3.97571,28.42634 1.19271,3.18057 3.18057,7.15628 2.18664,3.77692 2.783,3.77692 0.59635,0 3.57814,-4.17449 2.98178,-4.1745 4.37328,-6.9575 1.78907,-3.37935 3.37935,-8.1502 1.3915,-4.57207 1.19272,-15.90285 0,-11.33078 -1.19272,-17.09556 -2.58421,-12.3247 -7.15628,-15.70406 z m 4.37328,-1.39149 q 0,-0.39758 -0.19878,-0.59636 -0.19879,-0.19879 -0.59636,-0.19879 -0.99393,0 0.79514,2.18664 1.78907,2.38543 2.98179,5.16843 0.99393,2.783 1.19271,2.98178 0.19879,0.39757 5.76478,-2.58421 5.76478,-2.98178 6.36114,-3.77693 0.79514,-0.79514 -0.79514,-0.19878 -0.59636,0.39757 -1.59029,0.79514 -5.56599,2.783 -7.75263,1.19271 -0.79515,-0.59635 0.19878,-1.78907 0,-0.79514 -1.19271,-0.79514 -1.98786,0 -1.98786,-0.99393 0,-0.79514 -1.59028,-0.59635 -0.79514,0 -1.3915,-0.19879 -0.39757,-0.39757 -0.19879,-0.59635 z m 19.08342,19.08341 q -1.19272,-15.70406 -2.38543,-15.1077 -0.59636,0.99392 -5.96357,3.57814 -6.16235,3.37935 -5.76478,3.97571 0.39757,0 5.76478,-1.78907 2.98179,-1.19272 4.57207,-1.59029 1.59029,-0.39757 1.59029,0 0.19878,0.19879 -0.99393,1.3915 -1.19271,0.99393 -3.97571,2.98179 -4.96964,3.37935 -4.96964,3.97571 0,0.39757 0.99393,0.19878 0.99392,-0.19878 2.58421,-0.79514 1.59028,-0.59636 3.18057,-1.3915 1.78907,-0.99393 2.58421,-0.99393 2.18664,0 -3.57814,3.57814 -2.98178,2.58422 -3.18057,3.18057 1.19271,0.19879 3.97571,-1.59028 2.783,-1.59029 3.37936,-0.99393 0.19878,0.19879 -0.39757,0.79514 -0.39758,0.59636 -1.59029,1.59029 -0.99393,0.79514 -2.58421,1.98785 -3.37936,2.58421 -4.37328,3.57814 -0.79515,0.79514 -0.59636,1.78907 0.39757,1.59029 0.59636,1.59029 0.39757,0 3.97571,-1.59029 5.56599,-2.18664 5.56599,-0.99393 0,1.59029 -6.55992,5.76479 -3.37935,1.78907 -3.37935,2.98178 0,1.19271 0.59635,1.19271 0.79514,0 4.37328,-1.19271 4.37329,-1.59029 4.37329,-0.59636 -0.19879,0.39757 -1.59029,1.59029 -6.75871,4.96964 -6.75871,5.96356 0,0.99393 7.55385,0.39757 l 2.58422,-0.19878 0.39757,-8.15021 q 0.39757,-8.34899 0,-15.1077 z m -4.96964,-9.54171 q 0.39757,-0.39757 0,-0.19878 -0.19879,0 -4.37328,1.59028 -4.37329,1.78907 -4.37329,2.38543 l 0.19879,1.78907 q 0.19879,0.79514 3.97571,-1.98786 3.77693,-2.783 4.57207,-3.57814 z m -4.1745,8.349 1.3915,-1.19272 q -0.39757,0 -2.783,0.59636 -1.78907,0.59636 -1.98785,0.99393 -0.19879,0.39757 0,1.98785 0.39757,2.38543 0.39757,3.37936 0,1.59028 3.97571,-1.59029 l 1.78907,-1.59028 -2.38543,0.39757 q -1.98785,0.19878 -2.18664,-0.59636 -0.19878,-0.99393 1.78907,-2.38542 z m 5.36721,9.93927 q 0.39757,-0.59635 -0.19878,-0.59635 -0.59636,0 -3.97571,1.3915 -3.57814,1.39149 -3.57814,2.58421 0,1.59028 0.39757,1.59028 0.39757,0 3.57814,-2.18664 3.37935,-2.38543 3.77692,-2.783 z m -2.38542,8.94535 q 1.78907,-1.19271 1.78907,-1.3915 0,-0.39757 -3.77693,0.99393 -1.98786,0.79514 -2.58421,1.3915 -0.59636,0.39757 -0.59636,1.59029 l -0.39757,1.78907 1.78907,-1.59029 q 1.59028,-1.3915 3.77693,-2.783 z m -1.78907,7.15628 q -2.18665,0 -3.18057,-0.39757 -0.59636,-0.19878 -0.79515,0.19879 -0.19878,0.19878 -0.19878,1.19271 v 1.98786 l 2.38543,-1.19272 q 2.78299,-1.19271 3.18056,-1.3915 0.39758,-0.19878 -0.19878,-0.19878 -0.39757,-0.19879 -1.19271,-0.19879 z m 6.36113,4.96964 q 0.79515,-4.37328 0.39757,-4.77085 0,-0.39757 -2.38542,0.39757 -2.38543,0.59636 -4.96964,1.78907 -2.38543,0.99393 -2.98178,1.78907 -0.79515,0.79514 0.59635,0.79514 0.79514,0 3.77693,-0.19878 l 5.16842,-0.39757 -4.37328,2.18664 q -3.37935,1.59028 -4.37328,2.38542 -0.99393,0.59636 0.19878,0.99393 1.19272,0.19879 4.96964,0 2.98179,-0.19878 3.18057,-0.19878 0.19879,-0.19879 0.79514,-4.77086 z m -7.95142,1.19272 q -1.19271,0 -2.18664,-0.39758 -0.99393,-0.19878 -1.3915,0.39758 0,0.39757 -0.19878,0.99392 -0.19879,0.39757 -0.39758,1.19272 -0.19878,0.79514 -0.39757,1.19271 -1.78907,5.96357 -4.96964,10.53563 -1.19271,1.78907 -0.99392,1.98786 0.19878,0 2.18664,-0.59636 2.18664,-0.79514 1.19271,-1.19271 -2.18664,-0.79514 2.18664,-2.38543 1.19272,-0.39757 2.783,-0.99392 l 5.566,-1.59029 -2.783,-0.39757 q -2.783,-0.39757 -2.98179,-1.19271 0,-0.79515 2.783,-1.59029 l 2.98179,-0.99393 h -2.38543 q -3.57814,0 -4.1745,-0.99392 -0.39757,-0.99393 2.38543,-2.58422 2.38543,-1.39149 0.79514,-1.39149 z m 5.76478,9.14413 q 0.99393,-3.57814 0.79514,-3.77692 -0.19878,-0.19879 -3.77692,0.79514 -3.57814,0.99393 -3.97571,1.3915 l 1.3915,0.59635 h 1.3915 q 3.18056,0 3.18056,0.39757 0,1.3915 -7.75263,3.37936 l -2.98179,0.99393 h 4.37329 q 4.17449,0.19878 4.37328,0.79514 0.39757,0.39757 -3.37936,0.99393 -3.97571,0.39757 -7.15628,1.3915 -2.98178,0.79514 -2.98178,1.59028 0,1.59028 6.36114,1.59028 4.37328,0 3.97571,0.59636 -0.39757,0.59636 -4.96964,1.19271 -4.77085,0.79515 -4.77085,1.3915 0,0.39757 3.57814,1.19272 l 3.37935,0.79514 2.18664,-2.18664 q 4.1745,-3.97571 6.75871,-13.11985 z m -13.31863,10.73442 q -2.783,0 -3.77693,-0.99393 -0.59635,-0.59635 -1.19271,-0.39757 -0.39757,0.19879 -1.59028,1.3915 -1.59029,1.78907 -0.79515,2.38543 3.37936,2.58421 6.55993,2.58421 1.19271,0 0.99393,-0.19879 -0.19879,-0.19878 -1.78907,-0.59635 -2.783,-0.79514 -2.58422,-1.78907 0.39757,-0.99393 3.57814,-1.59029 l 3.37936,-0.59635 z M -382.334,248.9499 q 10.13806,-3.97571 16.69798,1.78907 4.57207,3.97571 6.75871,11.92713 2.38543,7.95142 0.59636,14.11377 -2.18664,7.35507 -15.70406,15.10771 -7.95142,4.17449 -8.34899,2.18664 0,-0.79514 -1.98786,-0.19879 -2.18664,0.59636 -6.36113,0.59636 -4.1745,-0.19879 -6.55993,-0.99393 -6.36114,-2.18664 -9.34292,-8.54778 -1.3915,-3.18057 -1.3915,-8.74656 0,-3.77693 0.19879,-5.16843 0.39757,-1.3915 1.3915,-3.18057 1.78907,-2.58421 1.78907,-2.98178 0,-0.19878 2.38542,-3.18057 1.98786,-2.38542 8.74657,-6.75871 6.75871,-4.37328 11.13199,-5.96356 z m 13.51742,2.783 q -1.3915,-0.79515 -3.77693,-1.3915 -2.18664,-0.39757 -2.38543,0.59635 -0.19878,0.59636 0,0.79515 0.19879,0.19878 0.59636,0 0.79514,-0.39758 0.79514,0.19878 0,0.59636 -1.3915,1.98786 l -0.59635,0.99392 q 0.19878,0 1.78907,-1.39149 3.18057,-2.38543 3.77692,-1.78907 0.79514,0.59635 -1.78907,3.77692 -1.98785,2.38543 -1.59028,2.58421 0.19878,0.19879 2.98178,-1.98785 2.98178,-2.38543 2.98178,-2.783 0,-0.39757 -1.39149,-1.59028 z m -10.53564,0 v 0.79514 q 0,0 0.79514,-0.79514 1.19272,-0.99393 1.19272,-1.19272 0,-0.19878 -0.79515,-0.19878 -0.79514,0 -1.19271,1.3915 z m 3.37936,-0.39758 0.19878,-0.79514 q -0.39757,0.19879 -2.38543,1.98786 -2.38542,2.18664 -3.57813,1.98785 -1.59029,0 -2.18665,0.39757 -0.59635,0.39758 -0.79514,0.19879 -0.19878,-0.39757 0.99393,-1.78907 0.79514,-0.79514 0.79514,-0.79514 0,-0.19879 -1.59028,0.39757 -1.78907,0.79514 -2.783,1.59028 -0.39757,0.59636 -0.39757,0.79515 0,0 0.99393,0 1.78907,0 4.77085,1.78907 3.18057,1.78907 5.16842,4.17449 5.16843,5.36721 6.16236,11.52956 l 0.19878,2.38543 2.783,-1.98786 q 3.57814,-2.58421 3.57814,-2.98178 0.19878,-0.39757 -1.19271,0.39757 -0.99393,0.39757 -1.98786,0.79514 -0.79514,0.19879 -1.3915,0.19879 -0.59636,-0.19879 -0.59636,-0.79514 0,-0.59636 2.98179,-2.783 3.18057,-2.58421 3.37935,-2.98178 l -2.98178,1.3915 q -3.97571,1.98785 -4.37328,1.98785 -1.3915,0 2.38542,-4.17449 l 2.58422,-2.98179 -2.18665,1.59029 q -3.97571,2.78299 -4.37328,1.19271 0,-0.39757 3.57814,-3.77693 3.37936,-3.37935 2.98179,-3.57814 -0.19879,-0.19878 -2.783,1.59029 -5.36721,3.57814 -5.16843,1.59028 0.19879,-0.39757 -0.19878,-0.39757 -0.19879,-0.19878 -0.39757,0 -0.79515,0.19879 -0.99393,-0.79514 -0.19879,-1.3915 0.59636,-1.78907 0.59635,-0.39757 1.98785,-2.38543 l 1.3915,-1.98785 -2.783,1.98785 q -3.77692,2.783 -5.76478,1.98786 -0.39757,-0.19879 -0.39757,-0.39757 0,-0.39757 1.59028,-2.18664 1.59029,-1.3915 2.18665,-2.58422 z m 10.53563,3.57814 q 0,-1.39149 -3.18057,1.98786 l -2.18664,2.38543 2.783,-1.98786 q 2.58421,-2.18664 2.58421,-2.38543 z m 1.98786,3.18057 -0.39758,-0.99392 q -1.39149,1.59028 -3.18056,3.37935 l -1.98786,2.38543 q 0.19879,0 3.37935,-2.18664 2.58422,-1.78907 2.18665,-2.58422 z m -21.07127,0.79515 q -9.14414,-4.1745 -18.28827,8.94534 -1.78907,2.58422 -2.18664,3.77693 -0.39758,1.19271 -0.39758,4.57207 0,7.55385 4.57207,11.92713 2.783,2.783 7.35507,3.57814 4.57207,0.59636 8.74656,-0.59636 4.37328,-1.19271 7.55385,-3.97571 3.37936,-2.98178 3.97571,-6.75871 0.79515,-6.16235 -2.58421,-12.52349 -3.37935,-6.36113 -8.74656,-8.94534 z m 22.66155,3.77692 q 0,-2.98178 -1.98786,-1.3915 -0.59635,0.59636 -1.78907,1.98786 -0.79514,0.79514 -1.59028,1.59028 -0.59636,0.79514 -0.99393,1.19272 l -0.19878,0.39757 q 0.99392,0 3.77692,-1.59029 2.783,-1.78907 2.783,-2.18664 z m 1.19271,8.94535 q 0.39757,-5.16842 -0.19878,-5.76478 -0.39757,-0.39757 -3.77693,1.98785 -3.37935,2.18665 -3.37935,2.783 l 0.39757,-0.19878 q 0.39757,0 0.99393,-0.19879 0.59635,-0.19878 1.19271,-0.59636 3.18057,-1.59028 3.18057,-0.59635 0,1.19271 -4.37328,4.57207 -2.58422,1.78907 -2.783,2.58421 l 0.79514,-0.19879 q 0.99393,-0.39757 2.38543,-1.3915 4.37328,-2.78299 4.37328,-1.59028 0,0.39757 -3.18057,3.57814 l -1.98785,2.18664 q 1.19271,-1.19271 1.98785,-1.19271 2.58421,0 -2.38543,5.56599 -3.18056,3.37936 -1.39149,2.18664 3.77692,-2.78299 6.16235,-5.96356 1.78907,-2.38543 1.98785,-7.75264 z m -6.95749,5.96357 q 1.78907,-1.78907 1.98785,-2.18664 l -2.18664,1.19271 q -1.98785,1.19271 -2.38542,2.783 -0.19879,1.19271 -1.19272,4.37328 l -0.79514,2.783 2.98178,-2.98179 q 5.16843,-4.96964 3.97572,-4.77085 -0.39758,0 -1.3915,0.79514 -2.783,1.98786 -2.58422,0.59636 0,-0.79514 1.59029,-2.58421 z" />
      </g>
    </g>
  </g>
</svg>
